<?xml version="1.0" encoding="UTF-8"?>
<svg id="Layer_2" data-name="Layer 2" xmlns="http://www.w3.org/2000/svg" viewBox="0 0 60 60">
  <defs>
    <style>
      .cls-1 {
        opacity: 0;
      }
    </style>
  </defs>
  <rect class="cls-1" x="11.42" y="6.3" width="37.16" height="47.39"/>
  <path d="M21.25,17.28c-.84,0-1.44-.62-1.44-1.41s.6-1.41,1.44-1.41h18.36c.82,0,1.41,.62,1.41,1.41s-.6,1.41-1.41,1.41H21.25Zm0,6.61c-.84,0-1.44-.62-1.44-1.41s.6-1.39,1.44-1.39h10.76c.82,0,1.44,.62,1.44,1.39s-.62,1.41-1.44,1.41h-10.76Zm.35,22.54c-1.94,0-3.05-1.04-3.05-3.05v-12.64c0-2.01,1.1-3.05,3.05-3.05h16.81c2.01,0,3.03,1.04,3.03,3.05v12.64c0,2.01-1.02,3.05-3.03,3.05H21.6Zm-10.19,.33c0,4.62,2.28,6.92,6.85,6.92h23.47c4.57,0,6.85-2.3,6.85-6.92V13.24c0-4.6-2.28-6.94-6.85-6.94H18.27c-4.57,0-6.85,2.34-6.85,6.94V46.76Z"/>
</svg>