<?xml version="1.0" encoding="UTF-8"?>
<svg id="Layer_1" data-name="Layer 1" xmlns="http://www.w3.org/2000/svg" viewBox="0 0 60 60">
  <g id="Ellipse_1" data-name="Ellipse 1">
    <path d="M45.1,18.68H15.37c-.77,0-1.39,.62-1.39,1.39v18.29l5.92-5.5c.88-.82,2.22-.89,3.19-.18l6.14,4.55,7.91-6.16c1-.77,2.42-.68,3.31,.22l6.03,6.07V20.07c0-.77-.62-1.39-1.38-1.39Zm-16.67,9.4c-.72,1.5-2.51,2.13-4,1.42-1.5-.71-2.13-2.5-1.42-4,.71-1.5,2.5-2.13,4-1.42,1.49,.72,2.13,2.51,1.42,4Z"/>
    <path d="M30,0C13.43,0,0,13.44,0,30s13.43,30,30,30,30-13.43,30-30S46.57,0,30,0Zm18.98,39.8c0,2.14-1.74,3.88-3.88,3.88H15.37c-2.15,0-3.89-1.74-3.89-3.88V20.07c0-2.14,1.74-3.89,3.89-3.89h29.73c2.14,0,3.88,1.75,3.88,3.89v19.73Z"/>
  </g>
</svg>