<?xml version="1.0" encoding="UTF-8"?>
<svg id="Layer_1" data-name="Layer 1" xmlns="http://www.w3.org/2000/svg" viewBox="0 0 60 60">
  <defs>
    <style>
      .cls-1 {
        fill: #fff;
      }
    </style>
  </defs>
  <g id="Ellipse_1" data-name="Ellipse 1">
    <polygon points="38.58 23.17 33.26 23.17 33.26 17.45 38.58 23.17"/>
    <path d="M30.76,25.67h9.44v14.25c0,.86-.71,1.57-1.57,1.57H22.38c-.87,0-1.57-.71-1.57-1.57V17.1c0-.87,.7-1.57,1.57-1.57h8.38v10.14Z"/>
    <path d="M30,0C13.43,0,0,13.44,0,30s13.43,30,30,30,30-13.43,30-30S46.57,0,30,0Zm12.7,39.92c0,2.24-1.83,4.07-4.07,4.07H22.38c-2.25,0-4.07-1.83-4.07-4.07V17.1c0-2.25,1.82-4.07,4.07-4.07h10.18l9.77,10.51c.23,.22,.37,.54,.37,.88v15.5Z"/>
  </g>
  <path class="cls-1" d="M42.33,23.54c.23,.22,.37,.54,.37,.88v-.49l-.37-.39Z"/>
</svg>