<?xml version="1.0" encoding="UTF-8"?>
<svg id="Layer_2" data-name="Layer 2" xmlns="http://www.w3.org/2000/svg" viewBox="0 0 57.73 57.73">
  <defs>
    <style>
      .cls-1 {
        fill: #fff;
      }
    </style>
  </defs>
  <path class="cls-1" d="m25.34,28.87c0,3.38-2.75,6.14-6.14,6.14s-6.14-2.76-6.14-6.14,2.75-6.15,6.14-6.15,6.14,2.76,6.14,6.15Z"/>
  <path class="cls-1" d="m53.31,28.87c0,7.49-6.1,13.59-13.59,13.59s-13.6-6.1-13.6-13.59,6.1-13.6,13.6-13.6,13.59,6.1,13.59,13.6Z"/>
  <path class="cls-1" d="m10.17,28.87c0,1.7-1.39,3.09-3.09,3.09s-3.09-1.39-3.09-3.09,1.38-3.09,3.09-3.09,3.09,1.39,3.09,3.09Z"/>
</svg>