<?xml version="1.0" encoding="UTF-8"?>
<svg id="Layer_1" data-name="Layer 1" xmlns="http://www.w3.org/2000/svg" viewBox="0 0 60 60">
  <defs>
    <style>
      .cls-1 {
        fill: none;
        stroke: #000;
        stroke-linecap: round;
        stroke-linejoin: round;
        stroke-width: 2.5px;
      }
    </style>
  </defs>
  <g>
    <line class="cls-1" x1="43.37" y1="25.12" x2="43.37" y2="34.6"/>
    <line class="cls-1" x1="32.77" y1="21.94" x2="32.77" y2="37.78"/>
    <line class="cls-1" x1="38.07" y1="15.58" x2="38.07" y2="44.14"/>
    <line class="cls-1" x1="22.17" y1="19.82" x2="22.17" y2="39.9"/>
    <line class="cls-1" x1="27.47" y1="13.46" x2="27.47" y2="46.26"/>
    <line class="cls-1" x1="16.87" y1="25.12" x2="16.87" y2="34.6"/>
  </g>
  <g id="Ellipse_1" data-name="Ellipse 1">
    <path d="m30,3.4c14.67,0,26.6,11.93,26.6,26.6s-11.93,26.6-26.6,26.6S3.4,44.67,3.4,30,15.33,3.4,30,3.4M30,0C13.43,0,0,13.43,0,30s13.43,30,30,30,30-13.43,30-30S46.57,0,30,0h0Z"/>
  </g>
</svg>