<?xml version="1.0" encoding="UTF-8"?>
<svg id="Layer_1" data-name="Layer 1" xmlns="http://www.w3.org/2000/svg" viewBox="0 0 60 60">
  <defs>
    <style>
      .cls-1 {
        fill: #fff;
      }
    </style>
  </defs>
  <g id="Ellipse_1" data-name="Ellipse 1">
    <path class="cls-1" d="m30,0C13.43,0,0,13.44,0,30s13.43,30,30,30,30-13.43,30-30S46.57,0,30,0Zm-11.88,34.61c0,.69-.56,1.25-1.25,1.25s-1.25-.56-1.25-1.25v-9.49c0-.69.56-1.25,1.25-1.25s1.25.56,1.25,1.25v9.49Zm5.3,5.3c0,.69-.56,1.25-1.25,1.25s-1.25-.56-1.25-1.25v-20.09c0-.69.56-1.25,1.25-1.25s1.25.56,1.25,1.25v20.09Zm5.3,6.36c0,.69-.56,1.25-1.25,1.25s-1.25-.56-1.25-1.25V13.47c0-.7.56-1.25,1.25-1.25s1.25.55,1.25,1.25v32.8Zm5.3-8.48c0,.69-.56,1.25-1.25,1.25s-1.25-.56-1.25-1.25v-15.85c0-.69.56-1.25,1.25-1.25s1.25.56,1.25,1.25v15.85Zm5.3,6.36c0,.69-.56,1.25-1.25,1.25s-1.25-.56-1.25-1.25V15.58c0-.69.56-1.25,1.25-1.25s1.25.56,1.25,1.25v28.57Zm5.3-9.54c0,.69-.56,1.25-1.25,1.25s-1.25-.56-1.25-1.25v-9.49c0-.69.56-1.25,1.25-1.25s1.25.56,1.25,1.25v9.49Z"/>
  </g>
</svg>