<?xml version="1.0" encoding="UTF-8"?>
<svg id="Layer_2" data-name="Layer 2" xmlns="http://www.w3.org/2000/svg" viewBox="0 0 57.73 57.73">
  <defs>
    <style>
      .cls-1 {
        fill: #fff;
      }
    </style>
  </defs>
  <path class="cls-1" d="M15.33,26.97l-5.77,6.5c-.56,.64-1.48,.64-2.04,0L1.74,26.97c-.91-1.03-.27-2.78,1.02-2.78H14.31c1.29,0,1.93,1.75,1.02,2.78Z"/>
  <path class="cls-1" d="M28.86,7.34c-8.75,0-16.31,5.25-19.67,12.77h6.87c1.75,0,3.3,1.04,4.05,2.7,.8,1.77,.49,3.83-.77,5.26,0,0-8.24,9.16-9.67,10.57,3.57,6.97,10.83,11.76,19.19,11.76,11.88,0,21.53-9.66,21.53-21.53S40.74,7.34,28.86,7.34Zm7.9,31.46c-.38,.43-.91,.64-1.43,.64-.45,0-.9-.16-1.26-.49l-8.07-7.2v-12.9c0-1.04,.86-1.9,1.9-1.9s1.9,.86,1.9,1.9v11.2l6.8,6.07c.78,.69,.85,1.9,.16,2.68Z"/>
</svg>