<?xml version="1.0" encoding="UTF-8"?>
<svg id="Layer_2" data-name="Layer 2" xmlns="http://www.w3.org/2000/svg" viewBox="0 0 57.73 57.73">
  <defs>
    <style>
      .cls-1 {
        fill: #fff;
      }
    </style>
  </defs>
  <path class="cls-1" d="m28.86,6.2c-10.89,0-20.01,7.73-22.17,17.99h-3.93c-1.29,0-1.93,1.76-1.02,2.78l5.78,6.5c.56.64,1.48.63,2.04,0l5.77-6.5c.91-1.03.27-2.78-1.02-2.78h-3.49c2.08-8.03,9.37-13.99,18.04-13.99,10.29,0,18.66,8.37,18.66,18.66s-8.37,18.66-18.66,18.66c-6.08,0-11.8-2.98-15.3-7.97-.63-.9-1.88-1.12-2.79-.49-.9.63-1.12,1.88-.49,2.79,4.24,6.06,11.19,9.67,18.57,9.67,12.5,0,22.66-10.17,22.66-22.66S41.36,6.2,28.86,6.2Z"/>
  <path class="cls-1" d="m35.67,39.99c-.47,0-.95-.17-1.33-.51l-8.49-7.58v-13.57c0-1.1.9-2,2-2s2,.9,2,2v11.78l7.15,6.39c.82.74.9,2,.16,2.82-.4.44-.94.67-1.49.67Z"/>
</svg>