<?xml version="1.0" encoding="UTF-8"?>
<svg id="Layer_2" data-name="Layer 2" xmlns="http://www.w3.org/2000/svg" viewBox="0 0 60 60">
  <defs>
    <style>
      .cls-1 {
        opacity: 0;
      }
    </style>
  </defs>
  <rect class="cls-1" x="11.42" y="6.3" width="37.16" height="47.39"/>
  <path d="m21.52,17.66h17.81c.8,0,1.37-.6,1.37-1.37s-.57-1.35-1.37-1.35h-17.81c-.82,0-1.39.6-1.39,1.35s.57,1.37,1.39,1.37Zm0,6.41h10.45c.77,0,1.37-.6,1.37-1.37s-.6-1.35-1.37-1.35h-10.45c-.82,0-1.39.6-1.39,1.35s.57,1.37,1.39,1.37Zm.33,21.87h16.33c1.94,0,2.94-.99,2.94-2.94v-12.29c0-1.94-.99-2.96-2.94-2.96h-16.33c-1.88,0-2.96,1.02-2.96,2.96v12.29c0,1.94,1.08,2.94,2.96,2.94Zm-10.43.82c0,4.62,2.28,6.92,6.85,6.92h23.47c4.57,0,6.85-2.3,6.85-6.92V13.24c0-4.6-2.28-6.94-6.85-6.94h-23.47c-4.57,0-6.85,2.34-6.85,6.94v33.52Zm3.56-.07V13.31c0-2.21,1.17-3.45,3.47-3.45h23.11c2.3,0,3.47,1.24,3.47,3.45v33.39c0,2.21-1.17,3.42-3.47,3.42h-23.11c-2.3,0-3.47-1.22-3.47-3.42Z"/>
</svg>