<?xml version="1.0" encoding="UTF-8"?>
<svg id="Layer_2" data-name="Layer 2" xmlns="http://www.w3.org/2000/svg" viewBox="0 0 57.73 57.73">
  <path d="M31.06,8.38c1.08,0,1.95,.87,1.95,1.95v5.54c.73,.23,1.43,.53,2.1,.88l3.92-3.92c.37-.37,.86-.57,1.38-.57s1.01,.21,1.38,.57l3.11,3.11c.76,.76,.76,2,0,2.76l-3.92,3.92c.35,.67,.65,1.37,.88,2.1h5.54c1.08,0,1.95,.87,1.95,1.95v4.39c0,1.08-.87,1.95-1.95,1.95h-5.54c-.23,.73-.53,1.43-.88,2.1l3.92,3.92c.76,.76,.76,2,0,2.76l-3.11,3.11c-.37,.37-.86,.57-1.38,.57s-1.01-.21-1.38-.57l-3.92-3.92c-.67,.35-1.37,.65-2.1,.88v5.54c0,1.08-.87,1.95-1.95,1.95h-4.39c-1.08,0-1.95-.87-1.95-1.95v-5.54c-.73-.23-1.43-.53-2.1-.88l-3.92,3.92c-.37,.37-.86,.57-1.38,.57s-1.01-.21-1.38-.57l-3.11-3.11c-.76-.76-.76-2,0-2.76l3.92-3.92c-.35-.67-.65-1.37-.88-2.1h-5.54c-1.08,0-1.95-.87-1.95-1.95v-4.39c0-1.08,.87-1.95,1.95-1.95h5.54c.23-.73,.53-1.43,.88-2.1l-3.92-3.92c-.76-.76-.76-2,0-2.76l3.11-3.11c.37-.37,.86-.57,1.38-.57s1.01,.21,1.38,.57l3.92,3.92c.67-.35,1.37-.65,2.1-.88v-5.54c0-1.08,.87-1.95,1.95-1.95h4.39m-2.2,29.02c4.71,0,8.54-3.82,8.54-8.54s-3.82-8.54-8.54-8.54-8.54,3.82-8.54,8.54,3.82,8.54,8.54,8.54M31.06,4.98h-4.39c-2.95,0-5.35,2.4-5.35,5.35v.31l-.22-.22c-1.01-1.01-2.35-1.57-3.78-1.57s-2.77,.56-3.78,1.57l-3.11,3.11c-1.01,1.01-1.57,2.35-1.57,3.78s.56,2.77,1.57,3.78l.22,.22h-.31c-2.95,0-5.35,2.4-5.35,5.35v4.39c0,2.95,2.4,5.35,5.35,5.35h.31l-.22,.22c-1.01,1.01-1.57,2.35-1.57,3.78s.56,2.77,1.57,3.78l3.11,3.11c1.01,1.01,2.35,1.57,3.78,1.57s2.77-.56,3.78-1.57l.22-.22v.31c0,2.95,2.4,5.35,5.35,5.35h4.39c2.95,0,5.35-2.4,5.35-5.35v-.31l.22,.22c1.01,1.01,2.36,1.57,3.78,1.57s2.77-.56,3.78-1.57l3.11-3.11c2.09-2.09,2.09-5.48,0-7.57l-.22-.22h.31c2.95,0,5.35-2.4,5.35-5.35v-4.39c0-2.95-2.4-5.35-5.35-5.35h-.31l.22-.22c2.09-2.09,2.09-5.48,0-7.57l-3.11-3.11c-1.01-1.01-2.35-1.57-3.78-1.57s-2.77,.56-3.78,1.57l-.22,.22v-.31c0-2.95-2.4-5.35-5.35-5.35h0Zm-2.2,29.02c-2.83,0-5.14-2.3-5.14-5.14s2.3-5.14,5.14-5.14,5.14,2.3,5.14,5.14-2.3,5.14-5.14,5.14h0Z"/>
</svg>