<?xml version="1.0" encoding="UTF-8"?>
<svg id="Layer_2" data-name="Layer 2" xmlns="http://www.w3.org/2000/svg" viewBox="0 0 57.73 57.73">
  <path d="M28.86,18.88c5.51,0,9.98,4.47,9.98,9.98s-4.47,9.98-9.98,9.98-9.98-4.47-9.98-9.98,4.47-9.98,9.98-9.98m0-4c-7.71,0-13.98,6.27-13.98,13.98s6.27,13.98,13.98,13.98,13.98-6.27,13.98-13.98-6.27-13.98-13.98-13.98h0Z"/>
  <g>
    <g>
      <rect x="25.61" y="8.87" width="6.5" height="7.93" rx="1" ry="1"/>
      <path d="M31.12,9.87v5.93h-4.5v-5.93h4.5m0-2h-4.5c-1.1,0-2,.9-2,2v5.93c0,1.1,.9,2,2,2h4.5c1.1,0,2-.9,2-2v-5.93c0-1.1-.9-2-2-2h0Z"/>
    </g>
    <g>
      <rect x="25.61" y="40.93" width="6.5" height="7.93" rx="1" ry="1"/>
      <path d="M31.12,41.93v5.93h-4.5v-5.93h4.5m0-2h-4.5c-1.1,0-2,.9-2,2v5.93c0,1.1,.9,2,2,2h4.5c1.1,0,2-.9,2-2v-5.93c0-1.1-.9-2-2-2h0Z"/>
    </g>
    <g>
      <path d="M18.03,22.22c-.26,0-.51-.1-.71-.29l-4.19-4.19c-.19-.19-.29-.44-.29-.71s.11-.52,.29-.71l3.18-3.18c.2-.2,.45-.29,.71-.29s.51,.1,.71,.29l4.19,4.19c.39,.39,.39,1.02,0,1.41l-3.18,3.18c-.2,.2-.45,.29-.71,.29Z"/>
      <path d="M17.02,13.84l4.19,4.19-3.18,3.18-4.19-4.19,3.18-3.18m0-2c-.51,0-1.02,.2-1.41,.59l-3.18,3.18c-.38,.38-.59,.88-.59,1.41s.21,1.04,.59,1.41l4.19,4.19c.39,.39,.9,.59,1.41,.59s1.02-.2,1.41-.59l3.18-3.18c.38-.38,.59-.88,.59-1.41s-.21-1.04-.59-1.41l-4.19-4.19c-.39-.39-.9-.59-1.41-.59h0Z"/>
    </g>
    <g>
      <path d="M40.71,44.89c-.26,0-.51-.1-.71-.29l-4.19-4.19c-.39-.39-.39-1.02,0-1.41l3.18-3.18c.2-.2,.45-.29,.71-.29s.51,.1,.71,.29l4.19,4.19c.39,.39,.39,1.02,0,1.41l-3.18,3.18c-.2,.2-.45,.29-.71,.29Z"/>
      <path d="M39.7,36.51l4.19,4.19-3.18,3.18-4.19-4.19,3.18-3.18m0-2c-.53,0-1.04,.21-1.41,.59l-3.18,3.18c-.78,.78-.78,2.05,0,2.83l4.19,4.19c.38,.38,.88,.59,1.41,.59s1.04-.21,1.41-.59l3.18-3.18c.78-.78,.78-2.05,0-2.83l-4.19-4.19c-.38-.38-.88-.59-1.41-.59h0Z"/>
    </g>
    <g>
      <rect x="8.87" y="25.61" width="7.93" height="6.5" rx="1" ry="1"/>
      <path d="M15.8,26.61v4.5h-5.93v-4.5h5.93m0-2h-5.93c-1.1,0-2,.9-2,2v4.5c0,1.1,.9,2,2,2h5.93c1.1,0,2-.9,2-2v-4.5c0-1.1-.9-2-2-2h0Z"/>
    </g>
    <g>
      <rect x="40.93" y="25.61" width="7.93" height="6.5" rx="1" ry="1"/>
      <path d="M47.86,26.61v4.5h-5.93v-4.5h5.93m0-2h-5.93c-1.1,0-2,.9-2,2v4.5c0,1.1,.9,2,2,2h5.93c1.1,0,2-.9,2-2v-4.5c0-1.1-.9-2-2-2h0Z"/>
    </g>
    <g>
      <path d="M17.02,44.89c-.26,0-.51-.1-.71-.29l-3.18-3.18c-.19-.19-.29-.44-.29-.71s.11-.52,.29-.71l4.19-4.19c.2-.2,.45-.29,.71-.29s.51,.1,.71,.29l3.18,3.18c.39,.39,.39,1.02,0,1.41l-4.19,4.19c-.2,.2-.45,.29-.71,.29Z"/>
      <path d="M18.03,36.51l3.18,3.18-4.19,4.19-3.18-3.18,4.19-4.19m0-2c-.51,0-1.02,.2-1.41,.59l-4.19,4.19c-.38,.38-.59,.88-.59,1.41s.21,1.04,.59,1.41l3.18,3.18c.39,.39,.9,.59,1.41,.59s1.02-.2,1.41-.59l4.19-4.19c.38-.38,.59-.88,.59-1.41s-.21-1.04-.59-1.41l-3.18-3.18c-.39-.39-.9-.59-1.41-.59h0Z"/>
    </g>
    <g>
      <path d="M39.7,22.22c-.26,0-.51-.1-.71-.29l-3.18-3.18c-.39-.39-.39-1.02,0-1.41l4.19-4.19c.2-.2,.45-.29,.71-.29s.51,.1,.71,.29l3.18,3.18c.39,.39,.39,1.02,0,1.41l-4.19,4.19c-.2,.2-.45,.29-.71,.29Z"/>
      <path d="M40.71,13.84l3.18,3.18-4.19,4.19-3.18-3.18,4.19-4.19m0-2h0c-.53,0-1.04,.21-1.41,.59l-4.19,4.19c-.78,.78-.78,2.05,0,2.83l3.18,3.18c.38,.38,.88,.59,1.41,.59h0c.53,0,1.04-.21,1.41-.59l4.19-4.19c.78-.78,.78-2.05,0-2.83l-3.18-3.18c-.38-.38-.88-.59-1.41-.59h0Z"/>
    </g>
  </g>
</svg>