<?xml version="1.0" encoding="UTF-8"?>
<svg id="Layer_2" data-name="Layer 2" xmlns="http://www.w3.org/2000/svg" viewBox="0 0 57.73 57.73">
  <defs>
    <style>
      .cls-1 {
        fill: #fff;
      }
    </style>
  </defs>
  <path class="cls-1" d="m28.86,18.24c5.87,0,10.63,4.76,10.63,10.63s-4.76,10.63-10.63,10.63-10.63-4.76-10.63-10.63,4.76-10.63,10.63-10.63m0-4c-8.07,0-14.63,6.56-14.63,14.63s6.56,14.63,14.63,14.63,14.63-6.56,14.63-14.63-6.56-14.63-14.63-14.63h0Z"/>
  <g>
    <g>
      <rect class="cls-1" x="25.47" y="7.64" width="6.79" height="8.31" rx="1" ry="1"/>
      <path class="cls-1" d="m31.26,8.64v6.31h-4.79v-6.31h4.79m0-2h-4.79c-1.1,0-2,.9-2,2v6.31c0,1.1.9,2,2,2h4.79c1.1,0,2-.9,2-2v-6.31c0-1.1-.9-2-2-2h0Z"/>
    </g>
    <g>
      <rect class="cls-1" x="25.47" y="41.78" width="6.79" height="8.31" rx="1" ry="1"/>
      <path class="cls-1" d="m31.26,42.78v6.31h-4.79v-6.31h4.79m0-2h-4.79c-1.1,0-2,.9-2,2v6.31c0,1.1.9,2,2,2h4.79c1.1,0,2-.9,2-2v-6.31c0-1.1-.9-2-2-2h0Z"/>
    </g>
    <g>
      <path class="cls-1" d="m17.33,21.72c-.26,0-.51-.1-.71-.29l-4.46-4.46c-.39-.39-.39-1.02,0-1.41l3.39-3.39c.19-.19.44-.29.71-.29h0c.27,0,.52.11.71.29l4.46,4.46c.19.19.29.44.29.71s-.11.52-.29.71l-3.39,3.39c-.2.2-.45.29-.71.29Z"/>
      <path class="cls-1" d="m16.26,12.87l4.46,4.46-3.39,3.39-4.46-4.46,3.39-3.39m0-2c-.53,0-1.04.21-1.41.59l-3.39,3.39c-.78.78-.78,2.05,0,2.83l4.46,4.46c.38.38.88.59,1.41.59s1.04-.21,1.41-.59l3.39-3.39c.78-.78.78-2.05,0-2.83l-4.46-4.46c-.38-.38-.88-.59-1.41-.59h0Z"/>
    </g>
    <g>
      <path class="cls-1" d="m41.47,45.86c-.26,0-.51-.1-.71-.29l-4.46-4.46c-.19-.19-.29-.44-.29-.71s.11-.52.29-.71l3.39-3.39c.2-.2.45-.29.71-.29s.51.1.71.29l4.46,4.46c.19.19.29.44.29.71s-.11.52-.29.71l-3.39,3.39c-.2.2-.45.29-.71.29Z"/>
      <path class="cls-1" d="m40.4,37.01l4.46,4.46-3.39,3.39-4.46-4.46,3.39-3.39m0-2c-.51,0-1.02.2-1.41.59l-3.39,3.39c-.38.38-.59.88-.59,1.41s.21,1.04.59,1.41l4.46,4.46c.39.39.9.59,1.41.59s1.02-.2,1.41-.59l3.39-3.39c.78-.78.78-2.05,0-2.83l-4.46-4.46c-.39-.39-.9-.59-1.41-.59h0Z"/>
    </g>
    <g>
      <rect class="cls-1" x="7.64" y="25.47" width="8.31" height="6.79" rx="1" ry="1"/>
      <path class="cls-1" d="m14.95,26.47v4.79h-6.31v-4.79h6.31m0-2h-6.31c-1.1,0-2,.9-2,2v4.79c0,1.1.9,2,2,2h6.31c1.1,0,2-.9,2-2v-4.79c0-1.1-.9-2-2-2h0Z"/>
    </g>
    <g>
      <rect class="cls-1" x="41.78" y="25.47" width="8.31" height="6.79" rx="1" ry="1"/>
      <path class="cls-1" d="m49.09,26.47v4.79h-6.31v-4.79h6.31m0-2h-6.31c-1.1,0-2,.9-2,2v4.79c0,1.1.9,2,2,2h6.31c1.1,0,2-.9,2-2v-4.79c0-1.1-.9-2-2-2h0Z"/>
    </g>
    <g>
      <path class="cls-1" d="m16.26,45.86c-.27,0-.52-.11-.71-.29l-3.39-3.39c-.39-.39-.39-1.02,0-1.41l4.46-4.46c.19-.19.44-.29.71-.29s.52.11.71.29l3.39,3.39c.39.39.39,1.02,0,1.41l-4.46,4.46c-.19.19-.44.29-.71.29Z"/>
      <path class="cls-1" d="m17.33,37.01l3.39,3.39-4.46,4.46-3.39-3.39,4.46-4.46m0-2c-.53,0-1.04.21-1.41.59l-4.46,4.46c-.78.78-.78,2.05,0,2.83l3.39,3.39c.38.38.88.59,1.41.59s1.04-.21,1.41-.59l4.46-4.46c.78-.78.78-2.05,0-2.83l-3.39-3.39c-.38-.38-.88-.59-1.41-.59h0Z"/>
    </g>
    <g>
      <path class="cls-1" d="m40.4,21.72c-.26,0-.51-.1-.71-.29l-3.39-3.39c-.19-.19-.29-.44-.29-.71s.11-.52.29-.71l4.46-4.46c.2-.2.45-.29.71-.29s.51.1.71.29l3.39,3.39c.19.19.29.44.29.71s-.11.52-.29.71l-4.46,4.46c-.2.2-.45.29-.71.29Z"/>
      <path class="cls-1" d="m41.47,12.87l3.39,3.39-4.46,4.46-3.39-3.39,4.46-4.46m0-2c-.51,0-1.02.2-1.41.59l-4.46,4.46c-.38.38-.59.88-.59,1.41s.21,1.04.59,1.41l3.39,3.39c.39.39.9.59,1.41.59s1.02-.2,1.41-.59l4.46-4.46c.78-.78.78-2.05,0-2.83l-3.39-3.39c-.39-.39-.9-.59-1.41-.59h0Z"/>
    </g>
  </g>
</svg>