<?xml version="1.0" encoding="UTF-8"?>
<svg id="Layer_2" data-name="Layer 2" xmlns="http://www.w3.org/2000/svg" viewBox="0 0 57.73 57.73">
  <defs>
    <style>
      .cls-1 {
        fill: none;
        stroke: #fff;
        stroke-miterlimit: 10;
        stroke-width: 2px;
      }
    </style>
  </defs>
  <path class="cls-1" d="M49.89,24.16h-6.28c-.26-.83-.6-1.62-1-2.38l4.45-4.45c.86-.86,.86-2.27,0-3.13l-3.52-3.52c-.42-.42-.98-.65-1.56-.65s-1.15,.23-1.56,.65l-4.45,4.45c-.76-.39-1.55-.73-2.38-1V7.84c0-1.22-.99-2.21-2.21-2.21h-4.98c-1.22,0-2.21,.99-2.21,2.21v6.28c-.83,.26-1.62,.6-2.38,1l-4.45-4.45c-.42-.42-.98-.65-1.56-.65s-1.15,.23-1.56,.65l-3.52,3.52c-.86,.86-.86,2.27,0,3.13l4.45,4.45c-.39,.76-.73,1.55-1,2.38H7.84c-1.22,0-2.21,.99-2.21,2.21v4.98c0,1.22,.99,2.21,2.21,2.21h6.28c.26,.83,.6,1.62,1,2.38l-4.45,4.45c-.86,.86-.86,2.27,0,3.13l3.52,3.52c.42,.42,.98,.65,1.56,.65s1.15-.23,1.56-.65l4.45-4.45c.76,.39,1.55,.73,2.38,1v6.28c0,1.22,.99,2.21,2.21,2.21h4.98c1.22,0,2.21-.99,2.21-2.21v-6.28c.83-.26,1.62-.6,2.38-1l4.45,4.45c.42,.42,.98,.65,1.56,.65s1.15-.23,1.56-.65l3.52-3.52c.86-.86,.86-2.27,0-3.13l-4.45-4.45c.39-.76,.73-1.55,1-2.38h6.28c1.22,0,2.21-.99,2.21-2.21v-4.98c0-1.22-.99-2.21-2.21-2.21Zm-21.02,14.26c-5.28,0-9.56-4.28-9.56-9.56s4.28-9.56,9.56-9.56,9.56,4.28,9.56,9.56-4.28,9.56-9.56,9.56Z"/>
</svg>