<?xml version="1.0" encoding="UTF-8"?>
<svg id="Layer_1" data-name="Layer 1" xmlns="http://www.w3.org/2000/svg" viewBox="0 0 60 60">
  <defs>
    <style>
      .cls-1 {
        fill: #fff;
      }
    </style>
  </defs>
  <g id="Ellipse_1" data-name="Ellipse 1">
    <path class="cls-1" d="m30,0C13.43,0,0,13.44,0,30s13.43,30,30,30,30-13.43,30-30S46.57,0,30,0Zm5.18,37.35l-8.28,8.17c-3.31,3.3-8.69,3.31-11.99,0-3.31-3.31-3.31-8.68,0-12l7.77-7.66-.47,3.94-5.57,5.47c-2.35,2.34-2.35,6.17,0,8.51,1.17,1.18,2.72,1.77,4.26,1.77s3.09-.59,4.27-1.77l8.28-8.17c1.13-1.13,1.76-2.65,1.76-4.26s-.63-3.12-1.76-4.26c-1.18-1.17-2.72-1.76-4.27-1.76-.16,0-.32.01-.49.02l2.29-2.28c1.53.33,3.01,1.09,4.2,2.28,1.65,1.66,2.48,3.83,2.48,6s-.83,4.35-2.48,6Zm10.94-10.97l-7.2,7.08.47-3.94,4.99-4.89c2.35-2.34,2.35-6.17,0-8.51-1.17-1.18-2.72-1.77-4.26-1.77s-3.09.59-4.26,1.77l-7.71,7.59c-1.13,1.13-1.76,2.65-1.76,4.26s.63,3.12,1.76,4.26c1.18,1.17,2.72,1.76,4.27,1.76.16,0,.32-.01.49-.02l-2.29,2.28c-1.53-.33-3.01-1.09-4.2-2.28-1.65-1.66-2.48-3.82-2.48-6s.83-4.34,2.48-6l7.7-7.59c3.31-3.3,8.69-3.31,12,0,3.3,3.31,3.3,8.68,0,12Z"/>
  </g>
</svg>