<?xml version="1.0" encoding="UTF-8"?>
<svg id="Layer_1" data-name="Layer 1" xmlns="http://www.w3.org/2000/svg" viewBox="0 0 60 60">
  <path d="M32.91,33.96c-.16,.02-.33,.02-.49,.02-1.55,0-3.08-.59-4.26-1.76-1.14-1.15-1.76-2.66-1.76-4.26,0-1.61,.62-3.13,1.76-4.26l7.7-7.59c1.18-1.18,2.72-1.77,4.26-1.77s3.09,.59,4.26,1.77c2.35,2.35,2.35,6.17,0,8.52l-4.99,4.88-.47,3.94,7.2-7.08c3.31-3.31,3.31-8.69,0-11.99-3.31-3.31-8.68-3.31-11.99,0l-7.7,7.59c-1.65,1.65-2.48,3.82-2.48,6,0,2.18,.83,4.34,2.48,6,1.19,1.19,2.67,1.96,4.21,2.28l2.28-2.28Z"/>
  <path d="M28.69,25.35c.16-.02,.33-.02,.49-.02,1.55,0,3.08,.59,4.26,1.76,1.14,1.15,1.76,2.66,1.76,4.26s-.62,3.13-1.76,4.26l-8.28,8.17c-1.18,1.18-2.72,1.77-4.26,1.77s-3.09-.59-4.26-1.77c-2.35-2.35-2.35-6.17,0-8.52l5.57-5.46,.47-3.94-7.77,7.66c-3.31,3.31-3.31,8.69,0,11.99,3.31,3.31,8.68,3.31,11.99,0l8.28-8.17c1.65-1.65,2.48-3.82,2.48-6,0-2.18-.83-4.34-2.48-6-1.19-1.19-2.67-1.96-4.21-2.28l-2.28,2.28Z"/>
  <g id="Ellipse_1" data-name="Ellipse 1">
    <path d="M30,3.4c14.67,0,26.6,11.93,26.6,26.6s-11.93,26.6-26.6,26.6S3.4,44.67,3.4,30,15.33,3.4,30,3.4M30,0C13.43,0,0,13.43,0,30s13.43,30,30,30,30-13.43,30-30S46.57,0,30,0h0Z"/>
  </g>
</svg>