<?xml version="1.0" encoding="UTF-8"?>
<svg id="Layer_2" data-name="Layer 2" xmlns="http://www.w3.org/2000/svg" viewBox="0 0 57.73 57.73">
  <defs>
    <style>
      .cls-1 {
        fill: #fff;
      }
    </style>
  </defs>
  <path class="cls-1" d="m51.73,47.42l-10.02-10.02c2.41-3.25,3.85-7.25,3.85-11.6,0-10.79-8.75-19.53-19.53-19.53S6.49,15,6.49,25.79s8.75,19.53,19.53,19.53c4.63,0,8.88-1.62,12.23-4.31l9.94,9.94c.49.49,1.13.73,1.77.73s1.28-.24,1.77-.73c.98-.98.98-2.56,0-3.54Zm-25.71-7.09c-8.01,0-14.53-6.52-14.53-14.53s6.52-14.53,14.53-14.53,14.53,6.52,14.53,14.53-6.52,14.53-14.53,14.53Z"/>
</svg>