<?xml version="1.0" encoding="UTF-8"?>
<svg id="Layer_2" data-name="Layer 2" xmlns="http://www.w3.org/2000/svg" viewBox="0 0 57.73 57.73">
  <defs>
    <style>
      .cls-1 {
        fill: #fff;
      }
    </style>
  </defs>
  <path class="cls-1" d="m52.76,42.21c2.36-2.32,3.83-5.54,3.83-9.11v-10.55c0-2.44-.7-4.71-1.88-6.65l-13.15,13.34,11.2,12.97Z"/>
  <path class="cls-1" d="m25.53,33.29c.94.94,2.13,1.48,3.28,1.48,1.2,0,2.38-.54,3.33-1.5l20.05-20.35c-2.24-1.95-5.16-3.14-8.36-3.14H13.89c-3.29,0-6.28,1.26-8.54,3.3l20.18,20.21Z"/>
  <path class="cls-1" d="m38.83,32.01l-3.93,3.98c-1.68,1.7-3.81,2.65-6.01,2.66-2.26,0-4.42-.94-6.11-2.62l-4.41-4.42-10.82,12.54c1.87,1.07,4.03,1.69,6.33,1.69h29.94c2.07,0,4.03-.51,5.76-1.38l-10.76-12.46Z"/>
  <path class="cls-1" d="m2.89,16.11c-1.11,1.89-1.76,4.09-1.76,6.44v10.55c0,3.34,1.29,6.37,3.39,8.64l11.1-12.87L2.89,16.11Z"/>
</svg>