<?xml version="1.0" encoding="UTF-8"?>
<svg id="Layer_2" data-name="Layer 2" xmlns="http://www.w3.org/2000/svg" viewBox="0 0 57.73 57.73">
  <defs>
    <style>
      .cls-1 {
        fill: #fff;
      }
    </style>
  </defs>
  <path class="cls-1" d="m44.91,13.19c4.57,0,8.28,3.71,8.28,8.28v12.71c0,4.57-3.71,8.28-8.28,8.28H12.82c-4.57,0-8.28-3.71-8.28-8.28v-12.71c0-4.57,3.71-8.28,8.28-8.28h32.1m0-3.4H12.82c-6.45,0-11.68,5.23-11.68,11.68v12.71c0,6.45,5.23,11.68,11.68,11.68h32.1c6.45,0,11.68-5.23,11.68-11.68v-12.71c0-6.45-5.23-11.68-11.68-11.68h0Z"/>
  <path class="cls-1" d="m52.82,42.21l-11.2-12.97,13.15-13.34-2.51-2.97-20.05,20.35c-.95.96-2.13,1.5-3.33,1.5-1.15,0-2.34-.54-3.28-1.48L5.42,13.09l-2.46,3.02,12.74,12.76-11.1,12.87,3.03,2.42,10.82-12.54,4.41,4.42c1.68,1.69,3.85,2.62,6.11,2.62,2.2-.02,4.33-.96,6.01-2.66l3.93-3.98,10.76,12.46"/>
</svg>