<?xml version="1.0" encoding="UTF-8"?>
<svg id="Layer_2" data-name="Layer 2" xmlns="http://www.w3.org/2000/svg" viewBox="0 0 57.73 57.73">
  <defs>
    <style>
      .cls-1 {
        fill: #fff;
      }
    </style>
  </defs>
  <path class="cls-1" d="M28.86,7.94c11.54,0,20.93,9.39,20.93,20.93s-9.39,20.93-20.93,20.93S7.94,40.4,7.94,28.86,17.33,7.94,28.86,7.94m0-4.5C14.82,3.44,3.44,14.82,3.44,28.86s11.38,25.43,25.43,25.43,25.43-11.38,25.43-25.43S42.91,3.44,28.86,3.44h0Z"/>
  <path class="cls-1" d="M30.18,26.91c2.13-1.69,3.12-2.75,3.12-4.62,0-2.15-1.84-3.68-4.34-3.68-2.21,0-3.68,.91-4.71,2.91-.56,.95-1.01,1.3-1.84,1.3-1.11,0-1.75-.78-1.75-1.82,0-1.42,.85-2.99,2.19-4.15,1.47-1.26,3.59-1.96,6.32-1.96,5.2,0,8.8,2.83,8.8,7.25,0,2.95-1.49,4.71-4.23,6.83-2.23,1.75-2.83,2.48-3.18,4.42-.35,1.2-.89,1.92-2.17,1.92s-2.04-.87-2.04-2.09c0-2.58,.87-3.94,3.84-6.32Zm-1.75,11.83c1.53,0,2.79,1.11,2.79,2.64s-1.26,2.66-2.79,2.66-2.79-1.14-2.79-2.66,1.26-2.64,2.79-2.64Z"/>
</svg>