<?xml version="1.0" encoding="UTF-8"?>
<svg id="Layer_2" data-name="Layer 2" xmlns="http://www.w3.org/2000/svg" viewBox="0 0 57.73 57.73">
  <defs>
    <style>
      .cls-1 {
        fill: #fff;
      }
    </style>
  </defs>
  <path class="cls-1" d="m28.86,3.43C14.82,3.43,3.44,14.82,3.44,28.86s11.38,25.43,25.42,25.43,25.43-11.39,25.43-25.43S42.91,3.43,28.86,3.43Zm-.43,40.62c-1.53,0-2.79-1.14-2.79-2.67s1.26-2.64,2.79-2.64,2.78,1.12,2.78,2.64-1.25,2.67-2.78,2.67Zm5.3-15.08c-2.23,1.76-2.83,2.48-3.18,4.42-.35,1.2-.88,1.92-2.16,1.92s-2.05-.86-2.05-2.08c0-2.58.87-3.95,3.84-6.32,2.13-1.69,3.12-2.75,3.12-4.62,0-2.15-1.84-3.68-4.34-3.68-2.21,0-3.67.91-4.7,2.91-.56.95-1.01,1.3-1.84,1.3-1.12,0-1.76-.78-1.76-1.81,0-1.43.85-3,2.19-4.15,1.47-1.26,3.6-1.97,6.32-1.97,5.2,0,8.8,2.83,8.8,7.25,0,2.95-1.49,4.71-4.24,6.83Z"/>
</svg>