<?xml version="1.0" encoding="UTF-8"?>
<svg id="Layer_2" data-name="Layer 2" xmlns="http://www.w3.org/2000/svg" viewBox="0 0 57.73 57.73">
  <defs>
    <style>
      .cls-1 {
        fill: #fff;
      }
    </style>
  </defs>
  <path class="cls-1" d="m28.86,8.97l15.71,3.61v17.69c0,11.77-15.71,18.49-15.71,18.49,0,0-15.71-6.73-15.71-18.49V12.58l15.71-3.61m0-4c-.3,0-.6.03-.89.1l-15.71,3.61c-1.82.42-3.11,2.03-3.11,3.9v17.69c0,14.24,17.4,21.85,18.14,22.17.5.22,1.04.32,1.57.32s1.07-.11,1.57-.32c.74-.32,18.14-7.93,18.14-22.17V12.58c0-1.86-1.29-3.48-3.11-3.9l-15.71-3.61c-.29-.07-.59-.1-.89-.1h0Z"/>
</svg>