<?xml version="1.0" encoding="UTF-8"?>
<svg id="Layer_1" data-name="Layer 1" xmlns="http://www.w3.org/2000/svg" viewBox="0 0 60 60">
  <defs>
    <style>
      .cls-1 {
        stroke: #000;
        stroke-linecap: round;
        stroke-linejoin: round;
      }
    </style>
  </defs>
  <path id="Path_41" data-name="Path 41" class="cls-1" d="M18.58,18.99v22.03c0,1.49,1.58,2.45,2.91,1.77l21.56-11.16c1.44-.75,1.43-2.82-.02-3.55l-21.56-10.86c-1.32-.67-2.89,.3-2.89,1.78Z"/>
  <g id="Ellipse_1" data-name="Ellipse 1">
    <path d="M30,3.4c14.67,0,26.6,11.93,26.6,26.6s-11.93,26.6-26.6,26.6S3.4,44.67,3.4,30,15.33,3.4,30,3.4M30,0C13.43,0,0,13.43,0,30s13.43,30,30,30,30-13.43,30-30S46.57,0,30,0h0Z"/>
  </g>
</svg>