<?xml version="1.0" encoding="UTF-8"?>
<svg id="Layer_2" data-name="Layer 2" xmlns="http://www.w3.org/2000/svg" viewBox="0 0 57.73 57.73">
  <defs>
    <style>
      .cls-1 {
        opacity: 0;
      }
    </style>
  </defs>
  <path d="M48.57,3.94H9.16C4.44,3.94,.61,7.77,.61,12.49V45.24c0,4.72,3.83,8.55,8.55,8.55H48.57c4.73,0,8.55-3.83,8.55-8.55V12.49c0-4.72-3.82-8.55-8.55-8.55Zm4.51,39.56c0,3.05-2.48,5.53-5.54,5.53H9.91c-3.05,0-5.53-2.48-5.53-5.53V20.05c0-3.05,2.48-5.53,5.53-5.53H47.53c3.06,0,5.54,2.48,5.54,5.53v23.45Z"/>
  <g>
    <path class="cls-1" d="M16.68,30.86v1.67c0,1-.32,1.28-1.34,1.28h-1.64c-1.03,0-1.34-.28-1.34-1.28v-1.67c0-.98,.31-1.27,1.34-1.27h1.64c1.02,0,1.34,.28,1.34,1.27Z"/>
    <path class="cls-1" d="M16.68,40.14v1.67c0,1-.32,1.3-1.34,1.3h-1.64c-1.03,0-1.34-.31-1.34-1.3v-1.67c0-1,.31-1.28,1.34-1.28h1.64c1.02,0,1.34,.28,1.34,1.28Z"/>
    <path class="cls-1" d="M26.09,21.59v1.67c0,1-.31,1.28-1.3,1.28h-1.67c-.98,0-1.33-.28-1.33-1.28v-1.67c0-.98,.34-1.3,1.33-1.3h1.67c1,0,1.3,.32,1.3,1.3Z"/>
    <path class="cls-1" d="M26.09,30.86v1.67c0,1-.31,1.28-1.3,1.28h-1.67c-.98,0-1.33-.28-1.33-1.28v-1.67c0-.98,.34-1.27,1.33-1.27h1.67c1,0,1.3,.28,1.3,1.27Z"/>
    <path class="cls-1" d="M26.09,40.14v1.67c0,1-.31,1.3-1.3,1.3h-1.67c-.98,0-1.33-.31-1.33-1.3v-1.67c0-1,.34-1.28,1.33-1.28h1.67c1,0,1.3,.28,1.3,1.28Z"/>
    <path class="cls-1" d="M35.53,21.59v1.67c0,1-.33,1.28-1.33,1.28h-1.67c-1,0-1.33-.28-1.33-1.28v-1.67c0-.98,.33-1.3,1.33-1.3h1.67c1,0,1.33,.32,1.33,1.3Z"/>
    <path class="cls-1" d="M35.53,30.86v1.67c0,1-.33,1.28-1.33,1.28h-1.67c-1,0-1.33-.28-1.33-1.28v-1.67c0-.98,.33-1.27,1.33-1.27h1.67c1,0,1.33,.28,1.33,1.27Z"/>
    <path class="cls-1" d="M35.53,40.14v1.67c0,1-.33,1.3-1.33,1.3h-1.67c-1,0-1.33-.31-1.33-1.3v-1.67c0-1,.33-1.28,1.33-1.28h1.67c1,0,1.33,.28,1.33,1.28Z"/>
    <path class="cls-1" d="M44.95,21.59v1.67c0,1-.34,1.28-1.33,1.28h-1.67c-1,0-1.3-.28-1.3-1.28v-1.67c0-.98,.31-1.3,1.3-1.3h1.67c.98,0,1.33,.32,1.33,1.3Z"/>
    <path class="cls-1" d="M44.95,30.86v1.67c0,1-.34,1.28-1.33,1.28h-1.67c-1,0-1.3-.28-1.3-1.28v-1.67c0-.98,.31-1.27,1.3-1.27h1.67c.98,0,1.33,.28,1.33,1.27Z"/>
    <path class="cls-1" d="M16.68,30.86v1.67c0,1-.32,1.28-1.34,1.28h-1.64c-1.03,0-1.34-.28-1.34-1.28v-1.67c0-.98,.31-1.27,1.34-1.27h1.64c1.02,0,1.34,.28,1.34,1.27Z"/>
    <path class="cls-1" d="M16.68,40.14v1.67c0,1-.32,1.3-1.34,1.3h-1.64c-1.03,0-1.34-.31-1.34-1.3v-1.67c0-1,.31-1.28,1.34-1.28h1.64c1.02,0,1.34,.28,1.34,1.28Z"/>
    <path class="cls-1" d="M26.09,21.59v1.67c0,1-.31,1.28-1.3,1.28h-1.67c-.98,0-1.33-.28-1.33-1.28v-1.67c0-.98,.34-1.3,1.33-1.3h1.67c1,0,1.3,.32,1.3,1.3Z"/>
    <path class="cls-1" d="M26.09,30.86v1.67c0,1-.31,1.28-1.3,1.28h-1.67c-.98,0-1.33-.28-1.33-1.28v-1.67c0-.98,.34-1.27,1.33-1.27h1.67c1,0,1.3,.28,1.3,1.27Z"/>
    <path class="cls-1" d="M26.09,40.14v1.67c0,1-.31,1.3-1.3,1.3h-1.67c-.98,0-1.33-.31-1.33-1.3v-1.67c0-1,.34-1.28,1.33-1.28h1.67c1,0,1.3,.28,1.3,1.28Z"/>
    <path class="cls-1" d="M35.53,21.59v1.67c0,1-.33,1.28-1.33,1.28h-1.67c-1,0-1.33-.28-1.33-1.28v-1.67c0-.98,.33-1.3,1.33-1.3h1.67c1,0,1.33,.32,1.33,1.3Z"/>
    <path class="cls-1" d="M35.53,30.86v1.67c0,1-.33,1.28-1.33,1.28h-1.67c-1,0-1.33-.28-1.33-1.28v-1.67c0-.98,.33-1.27,1.33-1.27h1.67c1,0,1.33,.28,1.33,1.27Z"/>
    <path class="cls-1" d="M35.53,40.14v1.67c0,1-.33,1.3-1.33,1.3h-1.67c-1,0-1.33-.31-1.33-1.3v-1.67c0-1,.33-1.28,1.33-1.28h1.67c1,0,1.33,.28,1.33,1.28Z"/>
    <path class="cls-1" d="M44.95,21.59v1.67c0,1-.34,1.28-1.33,1.28h-1.67c-1,0-1.3-.28-1.3-1.28v-1.67c0-.98,.31-1.3,1.3-1.3h1.67c.98,0,1.33,.32,1.33,1.3Z"/>
    <path class="cls-1" d="M44.95,30.86v1.67c0,1-.34,1.28-1.33,1.28h-1.67c-1,0-1.3-.28-1.3-1.28v-1.67c0-.98,.31-1.27,1.3-1.27h1.67c.98,0,1.33,.28,1.33,1.27Z"/>
    <path class="cls-1" d="M16.68,30.86v1.67c0,1-.32,1.28-1.34,1.28h-1.64c-1.03,0-1.34-.28-1.34-1.28v-1.67c0-.98,.31-1.27,1.34-1.27h1.64c1.02,0,1.34,.28,1.34,1.27Z"/>
    <path class="cls-1" d="M16.68,40.14v1.67c0,1-.32,1.3-1.34,1.3h-1.64c-1.03,0-1.34-.31-1.34-1.3v-1.67c0-1,.31-1.28,1.34-1.28h1.64c1.02,0,1.34,.28,1.34,1.28Z"/>
    <path class="cls-1" d="M26.09,21.59v1.67c0,1-.31,1.28-1.3,1.28h-1.67c-.98,0-1.33-.28-1.33-1.28v-1.67c0-.98,.34-1.3,1.33-1.3h1.67c1,0,1.3,.32,1.3,1.3Z"/>
    <path class="cls-1" d="M26.09,30.86v1.67c0,1-.31,1.28-1.3,1.28h-1.67c-.98,0-1.33-.28-1.33-1.28v-1.67c0-.98,.34-1.27,1.33-1.27h1.67c1,0,1.3,.28,1.3,1.27Z"/>
    <path class="cls-1" d="M26.09,40.14v1.67c0,1-.31,1.3-1.3,1.3h-1.67c-.98,0-1.33-.31-1.33-1.3v-1.67c0-1,.34-1.28,1.33-1.28h1.67c1,0,1.3,.28,1.3,1.28Z"/>
    <path class="cls-1" d="M35.53,21.59v1.67c0,1-.33,1.28-1.33,1.28h-1.67c-1,0-1.33-.28-1.33-1.28v-1.67c0-.98,.33-1.3,1.33-1.3h1.67c1,0,1.33,.32,1.33,1.3Z"/>
    <path class="cls-1" d="M35.53,30.86v1.67c0,1-.33,1.28-1.33,1.28h-1.67c-1,0-1.33-.28-1.33-1.28v-1.67c0-.98,.33-1.27,1.33-1.27h1.67c1,0,1.33,.28,1.33,1.27Z"/>
    <path class="cls-1" d="M35.53,40.14v1.67c0,1-.33,1.3-1.33,1.3h-1.67c-1,0-1.33-.31-1.33-1.3v-1.67c0-1,.33-1.28,1.33-1.28h1.67c1,0,1.33,.28,1.33,1.28Z"/>
    <path class="cls-1" d="M44.95,21.59v1.67c0,1-.34,1.28-1.33,1.28h-1.67c-1,0-1.3-.28-1.3-1.28v-1.67c0-.98,.31-1.3,1.3-1.3h1.67c.98,0,1.33,.32,1.33,1.3Z"/>
    <path class="cls-1" d="M44.95,30.86v1.67c0,1-.34,1.28-1.33,1.28h-1.67c-1,0-1.3-.28-1.3-1.28v-1.67c0-.98,.31-1.27,1.3-1.27h1.67c.98,0,1.33,.28,1.33,1.27Z"/>
    <path d="M16.68,30.86v1.67c0,1-.32,1.28-1.34,1.28h-1.64c-1.03,0-1.34-.28-1.34-1.28v-1.67c0-.98,.31-1.27,1.34-1.27h1.64c1.02,0,1.34,.28,1.34,1.27Z"/>
    <path d="M16.68,40.14v1.67c0,1-.32,1.3-1.34,1.3h-1.64c-1.03,0-1.34-.31-1.34-1.3v-1.67c0-1,.31-1.28,1.34-1.28h1.64c1.02,0,1.34,.28,1.34,1.28Z"/>
    <path d="M26.09,21.59v1.67c0,1-.31,1.28-1.3,1.28h-1.67c-.98,0-1.33-.28-1.33-1.28v-1.67c0-.98,.34-1.3,1.33-1.3h1.67c1,0,1.3,.32,1.3,1.3Z"/>
    <path d="M26.09,30.86v1.67c0,1-.31,1.28-1.3,1.28h-1.67c-.98,0-1.33-.28-1.33-1.28v-1.67c0-.98,.34-1.27,1.33-1.27h1.67c1,0,1.3,.28,1.3,1.27Z"/>
    <path d="M26.09,40.14v1.67c0,1-.31,1.3-1.3,1.3h-1.67c-.98,0-1.33-.31-1.33-1.3v-1.67c0-1,.34-1.28,1.33-1.28h1.67c1,0,1.3,.28,1.3,1.28Z"/>
    <path d="M35.53,21.59v1.67c0,1-.33,1.28-1.33,1.28h-1.67c-1,0-1.33-.28-1.33-1.28v-1.67c0-.98,.33-1.3,1.33-1.3h1.67c1,0,1.33,.32,1.33,1.3Z"/>
    <path d="M35.53,30.86v1.67c0,1-.33,1.28-1.33,1.28h-1.67c-1,0-1.33-.28-1.33-1.28v-1.67c0-.98,.33-1.27,1.33-1.27h1.67c1,0,1.33,.28,1.33,1.27Z"/>
    <path d="M35.53,40.14v1.67c0,1-.33,1.3-1.33,1.3h-1.67c-1,0-1.33-.31-1.33-1.3v-1.67c0-1,.33-1.28,1.33-1.28h1.67c1,0,1.33,.28,1.33,1.28Z"/>
    <path d="M44.95,21.59v1.67c0,1-.34,1.28-1.33,1.28h-1.67c-1,0-1.3-.28-1.3-1.28v-1.67c0-.98,.31-1.3,1.3-1.3h1.67c.98,0,1.33,.32,1.33,1.3Z"/>
    <path d="M44.95,30.86v1.67c0,1-.34,1.28-1.33,1.28h-1.67c-1,0-1.3-.28-1.3-1.28v-1.67c0-.98,.31-1.27,1.3-1.27h1.67c.98,0,1.33,.28,1.33,1.27Z"/>
    <path d="M16.68,30.86v1.67c0,1-.32,1.28-1.34,1.28h-1.64c-1.03,0-1.34-.28-1.34-1.28v-1.67c0-.98,.31-1.27,1.34-1.27h1.64c1.02,0,1.34,.28,1.34,1.27Z"/>
    <path d="M16.68,40.14v1.67c0,1-.32,1.3-1.34,1.3h-1.64c-1.03,0-1.34-.31-1.34-1.3v-1.67c0-1,.31-1.28,1.34-1.28h1.64c1.02,0,1.34,.28,1.34,1.28Z"/>
    <path d="M26.09,21.59v1.67c0,1-.31,1.28-1.3,1.28h-1.67c-.98,0-1.33-.28-1.33-1.28v-1.67c0-.98,.34-1.3,1.33-1.3h1.67c1,0,1.3,.32,1.3,1.3Z"/>
    <path d="M26.09,30.86v1.67c0,1-.31,1.28-1.3,1.28h-1.67c-.98,0-1.33-.28-1.33-1.28v-1.67c0-.98,.34-1.27,1.33-1.27h1.67c1,0,1.3,.28,1.3,1.27Z"/>
    <path d="M26.09,40.14v1.67c0,1-.31,1.3-1.3,1.3h-1.67c-.98,0-1.33-.31-1.33-1.3v-1.67c0-1,.34-1.28,1.33-1.28h1.67c1,0,1.3,.28,1.3,1.28Z"/>
    <path d="M35.53,21.59v1.67c0,1-.33,1.28-1.33,1.28h-1.67c-1,0-1.33-.28-1.33-1.28v-1.67c0-.98,.33-1.3,1.33-1.3h1.67c1,0,1.33,.32,1.33,1.3Z"/>
    <path d="M35.53,30.86v1.67c0,1-.33,1.28-1.33,1.28h-1.67c-1,0-1.33-.28-1.33-1.28v-1.67c0-.98,.33-1.27,1.33-1.27h1.67c1,0,1.33,.28,1.33,1.27Z"/>
    <path d="M35.53,40.14v1.67c0,1-.33,1.3-1.33,1.3h-1.67c-1,0-1.33-.31-1.33-1.3v-1.67c0-1,.33-1.28,1.33-1.28h1.67c1,0,1.33,.28,1.33,1.28Z"/>
    <path d="M44.95,21.59v1.67c0,1-.34,1.28-1.33,1.28h-1.67c-1,0-1.3-.28-1.3-1.28v-1.67c0-.98,.31-1.3,1.3-1.3h1.67c.98,0,1.33,.32,1.33,1.3Z"/>
    <path d="M44.95,30.86v1.67c0,1-.34,1.28-1.33,1.28h-1.67c-1,0-1.3-.28-1.3-1.28v-1.67c0-.98,.31-1.27,1.3-1.27h1.67c.98,0,1.33,.28,1.33,1.27Z"/>
    <path d="M16.68,30.86v1.67c0,1-.32,1.28-1.34,1.28h-1.64c-1.03,0-1.34-.28-1.34-1.28v-1.67c0-.98,.31-1.27,1.34-1.27h1.64c1.02,0,1.34,.28,1.34,1.27Z"/>
    <path d="M16.68,40.14v1.67c0,1-.32,1.3-1.34,1.3h-1.64c-1.03,0-1.34-.31-1.34-1.3v-1.67c0-1,.31-1.28,1.34-1.28h1.64c1.02,0,1.34,.28,1.34,1.28Z"/>
    <path d="M26.09,21.59v1.67c0,1-.31,1.28-1.3,1.28h-1.67c-.98,0-1.33-.28-1.33-1.28v-1.67c0-.98,.34-1.3,1.33-1.3h1.67c1,0,1.3,.32,1.3,1.3Z"/>
    <path d="M26.09,30.86v1.67c0,1-.31,1.28-1.3,1.28h-1.67c-.98,0-1.33-.28-1.33-1.28v-1.67c0-.98,.34-1.27,1.33-1.27h1.67c1,0,1.3,.28,1.3,1.27Z"/>
    <path d="M26.09,40.14v1.67c0,1-.31,1.3-1.3,1.3h-1.67c-.98,0-1.33-.31-1.33-1.3v-1.67c0-1,.34-1.28,1.33-1.28h1.67c1,0,1.3,.28,1.3,1.28Z"/>
    <path d="M35.53,21.59v1.67c0,1-.33,1.28-1.33,1.28h-1.67c-1,0-1.33-.28-1.33-1.28v-1.67c0-.98,.33-1.3,1.33-1.3h1.67c1,0,1.33,.32,1.33,1.3Z"/>
    <path d="M35.53,30.86v1.67c0,1-.33,1.28-1.33,1.28h-1.67c-1,0-1.33-.28-1.33-1.28v-1.67c0-.98,.33-1.27,1.33-1.27h1.67c1,0,1.33,.28,1.33,1.27Z"/>
    <path d="M35.53,40.14v1.67c0,1-.33,1.3-1.33,1.3h-1.67c-1,0-1.33-.31-1.33-1.3v-1.67c0-1,.33-1.28,1.33-1.28h1.67c1,0,1.33,.28,1.33,1.28Z"/>
    <path d="M44.95,21.59v1.67c0,1-.34,1.28-1.33,1.28h-1.67c-1,0-1.3-.28-1.3-1.28v-1.67c0-.98,.31-1.3,1.3-1.3h1.67c.98,0,1.33,.32,1.33,1.3Z"/>
    <path d="M44.95,30.86v1.67c0,1-.34,1.28-1.33,1.28h-1.67c-1,0-1.3-.28-1.3-1.28v-1.67c0-.98,.31-1.27,1.3-1.27h1.67c.98,0,1.33,.28,1.33,1.27Z"/>
    <path d="M16.68,30.86v1.67c0,1-.32,1.28-1.34,1.28h-1.64c-1.03,0-1.34-.28-1.34-1.28v-1.67c0-.98,.31-1.27,1.34-1.27h1.64c1.02,0,1.34,.28,1.34,1.27Z"/>
    <path d="M16.68,40.14v1.67c0,1-.32,1.3-1.34,1.3h-1.64c-1.03,0-1.34-.31-1.34-1.3v-1.67c0-1,.31-1.28,1.34-1.28h1.64c1.02,0,1.34,.28,1.34,1.28Z"/>
    <path d="M26.09,21.59v1.67c0,1-.31,1.28-1.3,1.28h-1.67c-.98,0-1.33-.28-1.33-1.28v-1.67c0-.98,.34-1.3,1.33-1.3h1.67c1,0,1.3,.32,1.3,1.3Z"/>
    <path d="M26.09,30.86v1.67c0,1-.31,1.28-1.3,1.28h-1.67c-.98,0-1.33-.28-1.33-1.28v-1.67c0-.98,.34-1.27,1.33-1.27h1.67c1,0,1.3,.28,1.3,1.27Z"/>
    <path d="M26.09,40.14v1.67c0,1-.31,1.3-1.3,1.3h-1.67c-.98,0-1.33-.31-1.33-1.3v-1.67c0-1,.34-1.28,1.33-1.28h1.67c1,0,1.3,.28,1.3,1.28Z"/>
    <path d="M35.53,21.59v1.67c0,1-.33,1.28-1.33,1.28h-1.67c-1,0-1.33-.28-1.33-1.28v-1.67c0-.98,.33-1.3,1.33-1.3h1.67c1,0,1.33,.32,1.33,1.3Z"/>
    <path d="M35.53,30.86v1.67c0,1-.33,1.28-1.33,1.28h-1.67c-1,0-1.33-.28-1.33-1.28v-1.67c0-.98,.33-1.27,1.33-1.27h1.67c1,0,1.33,.28,1.33,1.27Z"/>
    <path d="M35.53,40.14v1.67c0,1-.33,1.3-1.33,1.3h-1.67c-1,0-1.33-.31-1.33-1.3v-1.67c0-1,.33-1.28,1.33-1.28h1.67c1,0,1.33,.28,1.33,1.28Z"/>
    <path d="M44.95,21.59v1.67c0,1-.34,1.28-1.33,1.28h-1.67c-1,0-1.3-.28-1.3-1.28v-1.67c0-.98,.31-1.3,1.3-1.3h1.67c.98,0,1.33,.32,1.33,1.3Z"/>
    <path d="M44.95,30.86v1.67c0,1-.34,1.28-1.33,1.28h-1.67c-1,0-1.3-.28-1.3-1.28v-1.67c0-.98,.31-1.27,1.3-1.27h1.67c.98,0,1.33,.28,1.33,1.27Z"/>
    <path d="M26.09,21.59v1.67c0,1-.31,1.28-1.3,1.28h-1.67c-.98,0-1.33-.28-1.33-1.28v-1.67c0-.98,.34-1.3,1.33-1.3h1.67c1,0,1.3,.32,1.3,1.3Z"/>
    <path d="M35.53,21.59v1.67c0,1-.33,1.28-1.33,1.28h-1.67c-1,0-1.33-.28-1.33-1.28v-1.67c0-.98,.33-1.3,1.33-1.3h1.67c1,0,1.33,.32,1.33,1.3Z"/>
    <path d="M44.95,21.59v1.67c0,1-.34,1.28-1.33,1.28h-1.67c-1,0-1.3-.28-1.3-1.28v-1.67c0-.98,.31-1.3,1.3-1.3h1.67c.98,0,1.33,.32,1.33,1.3Z"/>
    <path d="M16.68,30.86v1.67c0,1-.32,1.28-1.34,1.28h-1.64c-1.03,0-1.34-.28-1.34-1.28v-1.67c0-.98,.31-1.27,1.34-1.27h1.64c1.02,0,1.34,.28,1.34,1.27Z"/>
    <path d="M26.09,30.86v1.67c0,1-.31,1.28-1.3,1.28h-1.67c-.98,0-1.33-.28-1.33-1.28v-1.67c0-.98,.34-1.27,1.33-1.27h1.67c1,0,1.3,.28,1.3,1.27Z"/>
    <path d="M35.53,30.86v1.67c0,1-.33,1.28-1.33,1.28h-1.67c-1,0-1.33-.28-1.33-1.28v-1.67c0-.98,.33-1.27,1.33-1.27h1.67c1,0,1.33,.28,1.33,1.27Z"/>
    <path d="M44.95,30.86v1.67c0,1-.34,1.28-1.33,1.28h-1.67c-1,0-1.3-.28-1.3-1.28v-1.67c0-.98,.31-1.27,1.3-1.27h1.67c.98,0,1.33,.28,1.33,1.27Z"/>
    <path d="M16.68,40.14v1.67c0,1-.32,1.3-1.34,1.3h-1.64c-1.03,0-1.34-.31-1.34-1.3v-1.67c0-1,.31-1.28,1.34-1.28h1.64c1.02,0,1.34,.28,1.34,1.28Z"/>
    <path d="M26.09,40.14v1.67c0,1-.31,1.3-1.3,1.3h-1.67c-.98,0-1.33-.31-1.33-1.3v-1.67c0-1,.34-1.28,1.33-1.28h1.67c1,0,1.3,.28,1.3,1.28Z"/>
    <path d="M35.53,40.14v1.67c0,1-.33,1.3-1.33,1.3h-1.67c-1,0-1.33-.31-1.33-1.3v-1.67c0-1,.33-1.28,1.33-1.28h1.67c1,0,1.33,.28,1.33,1.28Z"/>
  </g>
</svg>