<?xml version="1.0" encoding="UTF-8"?>
<svg id="Layer_1" data-name="Layer 1" xmlns="http://www.w3.org/2000/svg" viewBox="0 0 60 60">
  <defs>
    <style>
      .cls-1 {
        fill: none;
        stroke: #000;
        stroke-linecap: round;
        stroke-width: 2.5px;
      }
    </style>
  </defs>
  <g>
    <path class="cls-1" d="M19.56,17.09v22.82c0,1.56,1.26,2.82,2.82,2.82h16.25c1.56,0,2.82-1.26,2.82-2.82v-15.49l-9.44-10.14h-9.63c-1.56,0-2.82,1.26-2.82,2.82Z"/>
    <polyline class="cls-1" points="32.01 14.27 32.01 24.42 41.45 24.42"/>
  </g>
  <g id="Ellipse_1" data-name="Ellipse 1">
    <path d="M30,3.4c14.67,0,26.6,11.93,26.6,26.6s-11.93,26.6-26.6,26.6S3.4,44.67,3.4,30,15.33,3.4,30,3.4M30,0C13.43,0,0,13.43,0,30s13.43,30,30,30,30-13.43,30-30S46.57,0,30,0h0Z"/>
  </g>
</svg>