<?xml version="1.0" encoding="UTF-8" standalone="no"?>
<svg
   id="a"
   data-name="TypeOnly"
   width="3000"
   height="400"
   viewBox="0 0 3000 400"
   version="1.1"
   sodipodi:docname="TLR_Logo_svg_rawr.svg"
   inkscape:version="1.2.1 (9c6d41e410, 2022-07-14)"
   xmlns:inkscape="http://www.inkscape.org/namespaces/inkscape"
   xmlns:sodipodi="http://sodipodi.sourceforge.net/DTD/sodipodi-0.dtd"
   xmlns="http://www.w3.org/2000/svg"
   xmlns:svg="http://www.w3.org/2000/svg">
  <defs
     id="defs375" />
  <sodipodi:namedview
     id="namedview373"
     pagecolor="#ffffff"
     bordercolor="#000000"
     borderopacity="0.25"
     inkscape:showpageshadow="2"
     inkscape:pageopacity="0.0"
     inkscape:pagecheckerboard="0"
     inkscape:deskcolor="#d1d1d1"
     showgrid="false"
     inkscape:zoom="0.503"
     inkscape:cx="1825.0497"
     inkscape:cy="244.5328"
     inkscape:window-width="2560"
     inkscape:window-height="1369"
     inkscape:window-x="1912"
     inkscape:window-y="-8"
     inkscape:window-maximized="1"
     inkscape:current-layer="a" />
  <path
     d="M 157.52538,117.01772 H 73.302379 l 11.732,-62.015007 H 327.22838 l -11.732,62.015007 h -85.062 l -46.092,237.585 h -72.91 l 46.092,-237.585 z"
     fill="#231f20"
     id="path346" />
  <path
     d="m 349.43538,55.001713 h 67.043 l -22.208,114.393007 h 1.257 c 16.342,-21.789 35.617,-35.617 66.206,-35.617 43.159,0 68.3,33.521 57.825,88.833 l -25.56,131.991 h -67.043 l 24.722,-126.963 c 4.609,-23.466 -2.933,-38.551 -25.142,-38.551 -23.465,0 -39.807,20.951 -45.254,47.769 l -22.627,117.745 h -67.043 z"
     fill="#231f20"
     id="path348" />
  <path
     d="m 601.27038,264.93272 c 0.419,26.816 8.38,47.349 38.969,47.349 16.342,0 30.169,-6.704 36.874,-21.789 h 66.206 c -13.409,41.483 -50.702,70.396 -106.013,70.396 -58.244,0 -102.241,-33.103 -102.241,-98.889 0,-67.463 47.769,-128.221 118.583,-128.221 24.722,0 42.321,5.028 57.406,14.247 33.94,21.37 45.254,63.691 37.293,116.908 h -147.077 z m 5.447,-40.646 h 80.452 c 0.838,-23.046 -8.8,-42.321 -34.36,-42.321 -21.37,0 -38.55,15.923 -46.092,42.321 z"
     fill="#231f20"
     id="path350" />
  <path
     d="m 879.08438,55.001713 h 73.329 l -46.093,237.166007 h 129.05902 l -11.733,62.435 H 821.25938 Z"
     fill="#231f20"
     id="path352" />
  <path
     d="m 1089.4324,140.06372 h 67.043 l -41.482,214.539 h -67.044 z m 16.342,-85.062007 h 67.043 l -10.476,55.311007 h -67.043 z"
     fill="#231f20"
     id="path354" />
  <path
     d="m 1157.7334,262.83672 c 0,-70.396 48.188,-128.64 122.773,-128.64 54.892,0 103.079,31.846 103.498,97.632 0,71.233 -47.769,129.478 -122.773,129.478 -54.473,0 -103.498,-32.265 -103.498,-98.47 z m 158.39,-33.103 c 0,-24.723 -10.057,-47.769 -37.712,-47.769 -38.55,0 -53.634,49.444 -53.215,83.805 0,25.56 9.637,47.768 37.293,47.768 38.968,0 54.053,-48.605 53.634,-83.804 z"
     fill="#231f20"
     id="path356" />
  <path
     d="m 1426.3244,140.06372 h 64.948 l -6.704,33.941 h 1.257 c 17.18,-24.723 38.55,-40.226 69.139,-40.226 43.159,0 68.301,33.521 57.825,88.833 l -25.561,131.991 h -67.044 l 24.723,-126.963 c 4.609,-23.466 -2.934,-38.551 -25.142,-38.551 -23.046,0 -39.807,20.951 -45.254,47.769 l -22.627,117.745 h -67.044 l 41.483,-214.539 z"
     fill="#231f20"
     id="path358" />
  <path
     d="m 1637.0944,155.14872 c 18.018,-2.933 32.684,-15.923 36.035,-37.712 h -27.655 l 11.733,-62.435007 h 61.596 l -11.313,57.406007 c -4.19,22.208 -12.151,37.712 -24.723,48.606 -12.989,11.313 -31.007,17.599 -50.701,18.437 l 5.028,-24.303 z"
     fill="#231f20"
     id="path360" />
  <path
     d="m 1678.9934,285.04472 h 63.691 c 1.257,17.599 11.313,31.427 37.712,31.427 17.599,0 29.751,-5.866 29.751,-20.532 0,-15.085 -19.275,-18.855 -47.769,-27.236 -36.036,-10.476 -63.691,-25.141 -63.691,-63.272 0,-46.511 39.388,-71.652 92.604,-71.652 47.35,0 88.414,20.113 91.347,68.719 h -61.596 c -1.677,-15.084 -12.99,-25.141 -32.265,-25.141 -13.828,0 -28.075,5.028 -28.075,18.018 0,12.57 16.342,16.761 46.512,25.141 33.521,9.638 66.205,24.304 66.205,64.529 0,49.863 -36.035,76.262 -94.279,76.262 -50.282,0 -98.051,-22.627 -100.146,-76.262 z"
     fill="#231f20"
     id="path362" />
  <path
     d="m 2010.8604,55.001713 h 124.03 c 58.663,0 98.47,28.913 98.47,80.033007 0,43.998 -23.465,68.301 -63.272,80.033 v 1.257 c 23.047,8.381 35.617,26.398 35.617,56.568 0,15.085 -2.095,38.55 -2.095,57.825 0,10.476 2.095,17.599 5.866,20.112 v 3.771 h -72.491 c -2.933,-3.771 -3.771,-12.151 -3.771,-20.951 0,-15.085 1.677,-35.197 1.677,-51.959 0,-25.56 -11.732,-39.807 -41.064,-39.807 h -46.093 l -21.369,112.717 h -73.329 l 57.825,-299.601007 z m 47.769,132.830007 h 54.054 c 25.56,0 47.349,-12.152 47.349,-41.483 0,-20.951 -12.151,-33.103 -36.454,-33.103 h -50.702 l -14.246,74.586 z"
     fill="#231f20"
     id="path364" />
  <path
     d="m 2240.9906,294.05858 c 0,-52.377 38.969,-67.462 91.347,-71.233 42.32,-2.933 59.501,-5.447 59.501,-26.398 0,-12.151 -8.8,-20.532 -26.817,-20.532 -20.532,0 -33.522,9.218 -38.131,28.074 h -62.435 c 7.961,-44.416 41.483,-73.748 103.917,-73.748 24.723,0 48.188,4.19 64.948,17.18 17.6,12.99 27.236,35.617 20.532,70.815 l -19.274,98.889 c -3.353,16.342 -2.515,25.979 1.257,30.588 v 2.934 h -64.529 c -2.515,-5.028 -3.353,-14.247 -3.353,-23.465 h -0.838 c -14.247,16.761 -33.521,28.912 -58.663,28.912 -37.293,0 -67.462,-21.789 -67.462,-62.016 z m 137.438,-18.018 5.028,-26.398 c -9.638,4.609 -20.532,7.124 -36.455,9.638 -17.18,2.934 -41.063,4.19 -41.063,28.912 0,16.761 11.313,24.304 27.655,24.304 23.046,0 39.807,-12.99 44.835,-36.455 z"
     fill="#231f20"
     id="path368" />
  <path
     d="m 2793.0841,139.54284 h 64.529 l -7.124,35.198 h 1.258 c 15.504,-25.141 35.197,-38.55 62.015,-38.55 7.124,0 12.571,0.838 15.085,1.676 l -11.732,60.339 h -1.257 c -43.159,-6.285 -69.139,10.476 -79.195,62.016 l -18.018,93.86 h -67.044 z"
     fill="#231f20"
     id="path370" />
  <path
     style="fill:#231f20;fill-opacity:1;stroke-width:1.32718"
     d="m 2469.7787,139.29164 20.5413,211.13477 62.9492,0.50571 52.5681,-135.53083 v 136.54225 l 69.1335,0.25285 97.4055,-213.91618 h -65.1579 l -52.5681,138.81794 0.4418,-138.81794 h -65.3787 l -52.3472,138.05939 -7.7306,-137.30082 z"
     id="path300" />
</svg>
