<?xml version="1.0" encoding="UTF-8"?>
<svg id="a" data-name="TypeOnly" xmlns="http://www.w3.org/2000/svg" width="3000" height="400" viewBox="0 0 3000 400">
  <path d="M214.44,116.97h-84.223l11.732-62.015h242.194l-11.732,62.015h-85.062l-46.092,237.585h-72.91l46.092-237.585Z" fill="#231f20"/>
  <path d="M406.35,54.954h67.043l-22.208,114.393h1.257c16.342-21.789,35.617-35.617,66.206-35.617,43.159,0,68.3,33.521,57.825,88.833l-25.56,131.991h-67.043l24.722-126.963c4.609-23.466-2.933-38.551-25.142-38.551-23.465,0-39.807,20.951-45.254,47.769l-22.627,117.745h-67.043L406.35,54.954Z" fill="#231f20"/>
  <path d="M658.185,264.885c.419,26.816,8.38,47.349,38.969,47.349,16.342,0,30.169-6.704,36.874-21.789h66.206c-13.409,41.483-50.702,70.396-106.013,70.396-58.244,0-102.241-33.103-102.241-98.889,0-67.463,47.769-128.221,118.583-128.221,24.722,0,42.321,5.028,57.406,14.247,33.94,21.37,45.254,63.691,37.293,116.908h-147.077Zm5.447-40.646h80.452c.838-23.046-8.8-42.321-34.36-42.321-21.37,0-38.55,15.923-46.092,42.321Z" fill="#231f20"/>
  <path d="M935.999,54.954h73.329l-46.093,237.166h129.059l-11.733,62.435h-202.387l57.825-299.601Z" fill="#231f20"/>
  <path d="M1146.347,140.016h67.043l-41.482,214.539h-67.044l41.483-214.539Zm16.342-85.062h67.043l-10.476,55.311h-67.043l10.476-55.311Z" fill="#231f20"/>
  <path d="M1214.648,262.789c0-70.396,48.188-128.64,122.773-128.64,54.892,0,103.079,31.846,103.498,97.632,0,71.233-47.769,129.478-122.773,129.478-54.473,0-103.498-32.265-103.498-98.47Zm158.39-33.103c0-24.723-10.057-47.769-37.712-47.769-38.55,0-53.634,49.444-53.215,83.805,0,25.56,9.637,47.768,37.293,47.768,38.968,0,54.053-48.605,53.634-83.804Z" fill="#231f20"/>
  <path d="M1483.239,140.016h64.948l-6.704,33.941h1.257c17.18-24.723,38.55-40.226,69.139-40.226,43.159,0,68.301,33.521,57.825,88.833l-25.561,131.991h-67.044l24.723-126.963c4.609-23.466-2.934-38.551-25.142-38.551-23.046,0-39.807,20.951-45.254,47.769l-22.627,117.745h-67.044l41.483-214.539Z" fill="#231f20"/>
  <path d="M1694.009,155.101c18.018-2.933,32.684-15.923,36.035-37.712h-27.655l11.733-62.435h61.596l-11.313,57.406c-4.19,22.208-12.151,37.712-24.723,48.606-12.989,11.313-31.007,17.599-50.701,18.437l5.028-24.303Z" fill="#231f20"/>
  <path d="M1735.908,284.997h63.691c1.257,17.599,11.313,31.427,37.712,31.427,17.599,0,29.751-5.866,29.751-20.532,0-15.085-19.275-18.855-47.769-27.236-36.036-10.476-63.691-25.141-63.691-63.272,0-46.511,39.388-71.652,92.604-71.652,47.35,0,88.414,20.113,91.347,68.719h-61.596c-1.677-15.084-12.99-25.141-32.265-25.141-13.828,0-28.075,5.028-28.075,18.018,0,12.57,16.342,16.761,46.512,25.141,33.521,9.638,66.205,24.304,66.205,64.529,0,49.863-36.035,76.262-94.279,76.262-50.282,0-98.051-22.627-100.146-76.262Z" fill="#231f20"/>
  <path d="M2067.775,54.954h124.03c58.663,0,98.47,28.913,98.47,80.033,0,43.998-23.465,68.301-63.272,80.033v1.257c23.047,8.381,35.617,26.398,35.617,56.568,0,15.085-2.095,38.55-2.095,57.825,0,10.476,2.095,17.599,5.866,20.112v3.771h-72.491c-2.933-3.771-3.771-12.151-3.771-20.951,0-15.085,1.677-35.197,1.677-51.959,0-25.56-11.732-39.807-41.064-39.807h-46.093l-21.369,112.717h-73.329l57.825-299.601Zm47.769,132.83h54.054c25.56,0,47.349-12.152,47.349-41.483,0-20.951-12.151-33.103-36.454-33.103h-50.702l-14.246,74.586Z" fill="#231f20"/>
  <path d="M2279.802,262.789c0-70.396,48.188-128.64,122.773-128.64,54.892,0,103.079,31.846,103.498,97.632,0,71.233-47.769,129.478-122.773,129.478-54.473,0-103.498-32.265-103.498-98.47Zm158.391-33.103c0-24.723-10.057-47.769-37.712-47.769-38.551,0-53.635,49.444-53.216,83.805,0,25.56,9.637,47.768,37.293,47.768,38.969,0,54.054-48.605,53.635-83.804Z" fill="#231f20"/>
  <path d="M2513.611,297.987c0-52.377,38.969-67.462,91.347-71.233,42.32-2.933,59.501-5.447,59.501-26.398,0-12.151-8.8-20.532-26.817-20.532-20.532,0-33.522,9.218-38.131,28.074h-62.435c7.961-44.416,41.483-73.748,103.917-73.748,24.723,0,48.188,4.19,64.948,17.18,17.6,12.99,27.236,35.617,20.532,70.815l-19.274,98.889c-3.353,16.342-2.515,25.979,1.257,30.588v2.934h-64.529c-2.515-5.028-3.353-14.247-3.353-23.465h-.838c-14.247,16.761-33.521,28.912-58.663,28.912-37.293,0-67.462-21.789-67.462-62.016Zm137.438-18.018l5.028-26.398c-9.638,4.609-20.532,7.124-36.455,9.638-17.18,2.934-41.063,4.19-41.063,28.912,0,16.761,11.313,24.304,27.655,24.304,23.046,0,39.807-12.99,44.835-36.455Z" fill="#231f20"/>
  <path d="M2765.446,140.016h64.529l-7.124,35.198h1.258c15.504-25.141,35.197-38.55,62.015-38.55,7.124,0,12.571,.838,15.085,1.676l-11.732,60.339h-1.257c-43.159-6.285-69.139,10.476-79.195,62.016l-18.018,93.86h-67.044l41.483-214.539Z" fill="#231f20"/>
</svg>