<?xml version="1.0" encoding="UTF-8"?>
<svg id="Layer_1" data-name="Layer 1" xmlns="http://www.w3.org/2000/svg" viewBox="0 0 868.53 1440">
  <defs>
    <style>
      .cls-1 {
        fill: #fff;
      }
    </style>
  </defs>
  <path class="cls-1" d="M854.79,1440c56.81-117.06-75.27-253.44-164.43-346.46-39.59-41.3-91.21-75.3-110.47-129.18-29.23-81.8,28.6-173.22,8.25-257.67-2.57-10.65-6.47-21.2-13.31-29.76-15.01-18.79-40.56-24.45-62.56-34.17-34.9-15.43-63.86-43.9-79.87-78.53-21.53-46.57-19.28-100.05-25.8-150.94-14.57-113.63-76.91-220.37-168.72-288.89C169.42,73.32,85.26,43.99,0,39.99c0,47.01,0,1400.01,0,1400.01,0,0,842,0,854.79,0Z"/>
</svg>