<?xml version="1.0" encoding="UTF-8"?>
<svg id="Layer_1" data-name="Layer 1" xmlns="http://www.w3.org/2000/svg" viewBox="0 0 917.37 1440">
  <defs>
    <style>
      .cls-1 {
        fill: #fff;
      }
    </style>
  </defs>
  <path class="cls-1" d="M0,1439.53c6.46-19.63,15.09-38.41,26.59-55.92,36.44-55.46,96.35-89.89,149.51-129.61s104.4-92.98,108.6-159.21c4.5-71.18-46.88-136.96-42.67-208.16,3.78-63.83,51.73-116.79,104.77-152.5s113.48-59.98,164.04-99.12,91.75-99.84,82.85-163.16c-7.36-52.33-46.9-95.05-58.55-146.6-11.49-50.83,6.19-105.22,38.01-146.49,31.83-41.27,76.46-70.9,122.98-94.41,63.4-32.05,148.67-60.02,221.25-71.89,0,17.05,0,1427.05,0,1427.05,0,0-871,0-917.37,0Z"/>
</svg>