<?xml version="1.0" encoding="UTF-8"?>
<svg id="Layer_1" data-name="Layer 1" xmlns="http://www.w3.org/2000/svg" viewBox="0 0 654.07 1440">
  <defs>
    <style>
      .cls-1 {
        fill: #fff;
      }
    </style>
  </defs>
  <path class="cls-1" d="M654.07,1440c-10.56-44.68-23.9-88.71-39.93-131.73-9.33-25.04-19.93-50.32-38.1-69.91-30.48-32.85-77.99-45.25-109.48-77.13-42.07-42.59-46.12-108.98-43.83-168.79s7.47-123.74-22.54-175.54c-35.97-62.1-113.01-89.64-154.25-148.37-30.58-43.54-37.9-99.35-36.73-152.54,1.17-53.19,9.87-106.21,7.44-159.36-1.19-25.94-5.13-52.12-15.72-75.83-12.65-28.34-34.23-51.88-58.15-71.66C101.56,175.05,52.12,151.72,0,139.92c0,84.08,0,1300.08,0,1300.08,0,0,617,0,654.07,0Z"/>
</svg>