<?xml version="1.0" encoding="UTF-8"?>
<svg id="St_Patricks" data-name="St Patricks" xmlns="http://www.w3.org/2000/svg" viewBox="0 0 3000 400">
  <defs>
    <style>
      .cls-1 {
        fill: #00b46f;
      }

      .cls-2 {
        fill: #fff;
      }

      .cls-3 {
        fill: #231f20;
      }
    </style>
  </defs>
  <g>
    <path class="cls-3" d="M214.44,116.97h-84.22l11.73-62.02h242.19l-11.73,62.02h-85.06l-46.09,237.58h-72.91l46.09-237.58Z"/>
    <path class="cls-3" d="M406.35,54.95h67.04l-22.21,114.39h1.26c16.34-21.79,35.62-35.62,66.21-35.62,43.16,0,68.3,33.52,57.83,88.83l-25.56,131.99h-67.04l24.72-126.96c4.61-23.47-2.93-38.55-25.14-38.55-23.46,0-39.81,20.95-45.25,47.77l-22.63,117.75h-67.04L406.35,54.95Z"/>
    <path class="cls-3" d="M658.19,264.89c.42,26.82,8.38,47.35,38.97,47.35,16.34,0,30.17-6.7,36.87-21.79h66.21c-13.41,41.48-50.7,70.4-106.01,70.4-58.24,0-102.24-33.1-102.24-98.89s47.77-128.22,118.58-128.22c24.72,0,42.32,5.03,57.41,14.25,33.94,21.37,45.25,63.69,37.29,116.91h-147.08Zm5.45-40.65h80.45c.84-23.05-8.8-42.32-34.36-42.32-21.37,0-38.55,15.92-46.09,42.32Z"/>
    <path class="cls-3" d="M936,54.95h73.33l-46.09,237.17h129.06l-11.73,62.43h-202.39l57.82-299.6Z"/>
    <path class="cls-3" d="M1146.35,140.02h67.04l-41.48,214.54h-67.04l41.48-214.54Zm16.34-85.06h67.04l-10.48,55.31h-67.04l10.48-55.31Z"/>
    <path class="cls-3" d="M1214.65,262.79c0-70.4,48.19-128.64,122.77-128.64,54.89,0,103.08,31.85,103.5,97.63,0,71.23-47.77,129.48-122.77,129.48-54.47,0-103.5-32.26-103.5-98.47Zm158.39-33.1c0-24.72-10.06-47.77-37.71-47.77-38.55,0-53.63,49.44-53.22,83.8,0,25.56,9.64,47.77,37.29,47.77,38.97,0,54.05-48.61,53.63-83.8Z"/>
    <path class="cls-3" d="M1483.24,140.02h64.95l-6.7,33.94h1.26c17.18-24.72,38.55-40.23,69.14-40.23,43.16,0,68.3,33.52,57.83,88.83l-25.56,131.99h-67.04l24.72-126.96c4.61-23.47-2.93-38.55-25.14-38.55s-39.81,20.95-45.25,47.77l-22.63,117.75h-67.04l41.48-214.54Z"/>
    <path class="cls-3" d="M1694.01,155.1c18.02-2.93,32.68-15.92,36.04-37.71h-27.66l11.73-62.43h61.6l-11.31,57.41c-4.19,22.21-12.15,37.71-24.72,48.61-12.99,11.31-31.01,17.6-50.7,18.44l5.03-24.3Z"/>
    <path class="cls-3" d="M1735.91,285h63.69c1.26,17.6,11.31,31.43,37.71,31.43,17.6,0,29.75-5.87,29.75-20.53s-19.28-18.86-47.77-27.24c-36.04-10.48-63.69-25.14-63.69-63.27,0-46.51,39.39-71.65,92.6-71.65,47.35,0,88.41,20.11,91.35,68.72h-61.6c-1.68-15.08-12.99-25.14-32.26-25.14-13.83,0-28.08,5.03-28.08,18.02s16.34,16.76,46.51,25.14c33.52,9.64,66.21,24.3,66.21,64.53,0,49.86-36.04,76.26-94.28,76.26-50.28,0-98.05-22.63-100.15-76.26Z"/>
    <path class="cls-3" d="M2067.78,54.95h124.03c58.66,0,98.47,28.91,98.47,80.03,0,44-23.46,68.3-63.27,80.03v1.26c23.05,8.38,35.62,26.4,35.62,56.57,0,15.08-2.09,38.55-2.09,57.83,0,10.48,2.09,17.6,5.87,20.11v3.77h-72.49c-2.93-3.77-3.77-12.15-3.77-20.95,0-15.08,1.68-35.2,1.68-51.96,0-25.56-11.73-39.81-41.06-39.81h-46.09l-21.37,112.72h-73.33l57.83-299.6Zm47.77,132.83h54.05c25.56,0,47.35-12.15,47.35-41.48,0-20.95-12.15-33.1-36.45-33.1h-50.7l-14.25,74.59Z"/>
    <path class="cls-3" d="M2513.61,297.99c0-52.38,38.97-67.46,91.35-71.23,42.32-2.93,59.5-5.45,59.5-26.4,0-12.15-8.8-20.53-26.82-20.53-20.53,0-33.52,9.22-38.13,28.07h-62.43c7.96-44.42,41.48-73.75,103.92-73.75,24.72,0,48.19,4.19,64.95,17.18,17.6,12.99,27.24,35.62,20.53,70.82l-19.27,98.89c-3.35,16.34-2.51,25.98,1.26,30.59v2.93h-64.53c-2.51-5.03-3.35-14.25-3.35-23.46h-.84c-14.25,16.76-33.52,28.91-58.66,28.91-37.29,0-67.46-21.79-67.46-62.02Zm137.44-18.02l5.03-26.4c-9.64,4.61-20.53,7.12-36.46,9.64-17.18,2.93-41.06,4.19-41.06,28.91,0,16.76,11.31,24.3,27.66,24.3,23.05,0,39.81-12.99,44.83-36.46Z"/>
    <path class="cls-3" d="M2765.45,140.02h64.53l-7.12,35.2h1.26c15.5-25.14,35.2-38.55,62.01-38.55,7.12,0,12.57,.84,15.08,1.68l-11.73,60.34h-1.26c-43.16-6.29-69.14,10.48-79.2,62.02l-18.02,93.86h-67.04l41.48-214.54Z"/>
  </g>
  <g>
    <g>
      <path class="cls-1" d="M2379.95,208.77c-9.72-2.76-26.53-8.11-43.83-16.29-37.3-17.64-58.84-39.48-64.02-64.91-6.72-29.68,7.45-58.45,33.02-66.97,4.83-1.61,9.87-2.42,14.98-2.42,9.98,0,19.6,3.01,28.04,8.37,5.44-14.27,16.19-25.66,30.66-30.48,4.83-1.61,9.87-2.42,14.98-2.42,21.53,0,41.77,14.21,51.6,36.23,11.1,23.46,6.96,53.85-12.32,90.33-9.56,18.09-20.58,33.22-26.49,40.86l1.99,10.31h-13.66s-12.77,6.39-12.77,6.39l-2.18-8.98Z"/>
      <path class="cls-2" d="M2393.77,47.63c15.75,0,31.28,10.93,38.88,28.08,22.15,46.42-40.4,120.87-41.06,121.66h0s0,0,0,0c0,0,0,0,0,0h0c-1-.24-95.69-22.32-105.8-72.75-5.14-22.39,4.84-44.44,23.76-50.75,3.47-1.16,7.02-1.71,10.56-1.71,17.09,0,33.94,12.88,40.66,32.62-7.79-23.93,2.21-48.7,22.46-55.45,3.47-1.16,7.02-1.71,10.56-1.71m0-28h0c-6.61,0-13.14,1.06-19.4,3.14-13.27,4.42-24.64,13.35-32.51,25.27-7.06-2.54-14.42-3.87-21.76-3.87-6.62,0-13.14,1.06-19.4,3.14-32.4,10.79-50.53,46.51-42.29,83.2,3.6,17.46,13.5,33.49,29.43,47.65,11.12,9.89,25.35,18.96,42.29,26.97,14.67,6.94,29.01,11.94,39.39,15.14l7.39,23.1,21.63-16.22,34.03,6.38-9.82-30.7c6.39-8.76,14.93-21.43,22.69-36.11,8.75-16.57,14.7-32.36,17.68-46.94,4.26-20.89,2.58-39.65-5.02-55.78-12.11-26.97-37.32-44.37-64.32-44.38h0Z"/>
    </g>
    <g>
      <path class="cls-1" d="M2505.25,265.61c-39.54,0-83.69-30.27-100.87-43.31l-12.3,6.15v-16.86s-14.3-14.3-14.3-14.3l16.99-3.48c2.78-9.75,8.09-26.34,16.2-43.5,17.64-37.3,39.48-58.84,64.91-64.02,4.85-1.1,9.78-1.65,14.67-1.65,24.37,0,45.39,13.94,52.3,34.68,4.83,14.51,2.13,29.99-6.08,42.92,14.52,5.53,25.88,16.54,30.62,30.76,8.52,25.57-6.01,54.16-33.8,66.58-8.45,4-17.98,6.03-28.33,6.03h0Z"/>
      <path class="cls-2" d="M2490.55,98.65c17.95,0,33.82,9.52,39.02,25.1,6.74,20.25-7.09,43.11-30.91,51.22,5.51-1.79,11.06-2.65,16.43-2.65,17.95,0,33.82,9.52,39.02,25.1,6.3,18.92-5.37,40.13-26.37,49.44-6.98,3.33-14.59,4.74-22.49,4.74-44.65,0-98.5-45.24-99.17-45.81h0s0,0,0,0c0,0,0,0,0,0h0c.23-1,22.31-95.7,72.75-105.8,3.95-.91,7.89-1.34,11.73-1.34m0-28s0,0,0,0c-5.88,0-11.8,.66-17.62,1.97-17.46,3.6-33.5,13.5-47.66,29.43-9.89,11.12-18.96,25.35-26.97,42.29-6.86,14.5-11.82,28.66-15.03,39.01l-44.75,13.26,34.96,21.85-8.49,30.55,35.77-11.92c6.27,4.57,14.52,10.22,24.07,15.9,29.7,17.67,56.75,26.63,80.4,26.63,12.38,0,23.88-2.46,34.18-7.3,34.31-15.4,52.03-51.33,41.24-83.73-4.45-13.36-13.17-24.58-25.26-32.53,4.81-13.44,5.14-27.89,.72-41.15-4.58-13.76-13.69-25.25-26.35-33.23-11.43-7.21-25-11.02-39.23-11.02h0Z"/>
    </g>
    <g>
      <path class="cls-1" d="M2397.36,384.97c-21.53,0-41.77-14.21-51.6-36.22-11.1-23.46-6.96-53.85,12.32-90.33,9.56-18.09,20.58-33.22,26.49-40.86l-7.91-40.92,23.17,24.52,3.55-3.55,5.84,11.68c9.29,2.56,27.26,8.08,45.8,16.84,37.3,17.64,58.84,39.48,64.02,64.91,6.72,29.69-7.45,58.46-33.02,66.97-4.83,1.61-9.87,2.42-14.98,2.42h0c-9.98,0-19.6-3.01-28.04-8.37-5.44,14.27-16.19,25.66-30.66,30.48-4.83,1.61-9.87,2.42-14.98,2.42Z"/>
      <path class="cls-2" d="M2399.54,221.23h0c1,.24,95.69,22.32,105.8,72.75,5.14,22.39-4.84,44.44-23.76,50.75-3.47,1.16-7.02,1.71-10.56,1.71-17.1,0-33.94-12.88-40.66-32.62,7.79,23.93-2.21,48.7-22.46,55.45-3.47,1.16-7.02,1.71-10.56,1.71-15.74,0-31.28-10.93-38.88-28.08-22.15-46.42,40.4-120.87,41.06-121.66h0s0,0,0,0c0,0,0,0,0,0m7.39-54.72l-18.2,23.16-30.87-7.72,10.58,33.72c-6.4,8.76-14.97,21.47-22.75,36.2-8.75,16.57-14.7,32.36-17.68,46.94-4.26,20.88-2.58,39.65,5.01,55.78,12.11,26.97,37.32,44.38,64.32,44.38,6.62,0,13.14-1.06,19.4-3.14,13.27-4.42,24.64-13.35,32.51-25.27,7.06,2.54,14.42,3.87,21.76,3.87,6.62,0,13.14-1.06,19.4-3.14,32.4-10.79,50.53-46.51,42.29-83.2-3.6-17.46-13.5-33.49-29.43-47.65-11.12-9.89-25.35-18.96-42.29-26.97-15.4-7.28-30.43-12.43-40.9-15.61l-13.17-31.35h0Z"/>
    </g>
    <g>
      <path class="cls-1" d="M2299.41,334.34c-24.37,0-45.39-13.94-52.3-34.68-4.83-14.51-2.13-29.99,6.08-42.91-14.52-5.53-25.88-16.55-30.62-30.76-8.52-25.57,6.01-54.17,33.8-66.58,8.45-4,17.99-6.02,28.34-6.02,40.89,0,86.71,32.38,102.54,44.58l10.63-2.58v12.01s10.95,10.95,10.95,10.95l-13.19,5.25c-2.63,9.47-8.08,26.96-16.65,45.08-17.64,37.3-39.48,58.84-64.91,64.02-4.85,1.1-9.78,1.65-14.67,1.65h0Z"/>
      <path class="cls-2" d="M2284.72,167.38c44.65,0,98.5,45.24,99.17,45.81h0s0,0,0,0c0,0,0,0,0,0h0c-.23,1-22.31,95.7-72.75,105.8-3.95,.91-7.89,1.34-11.73,1.34-17.95,0-33.83-9.52-39.02-25.1-6.74-20.25,7.09-43.11,30.91-51.22-5.51,1.79-11.06,2.65-16.43,2.65-17.95,0-33.82-9.52-39.02-25.1-6.3-18.92,5.37-40.13,26.37-49.44,6.98-3.33,14.59-4.74,22.49-4.74m0-28s0,0,0,0c-12.38,0-23.88,2.46-34.18,7.3-34.31,15.4-52.03,51.33-41.24,83.73,4.45,13.36,13.17,24.58,25.26,32.53-4.81,13.44-5.14,27.89-.72,41.15,4.58,13.76,13.69,25.25,26.35,33.23,11.43,7.21,25,11.02,39.23,11.02,5.88,0,11.8-.66,17.62-1.97,17.46-3.6,33.5-13.5,47.66-29.43,9.89-11.12,18.96-25.35,26.97-42.29,7.05-14.91,12.06-29.26,15.24-39.61l31.21-10.4-22.16-20.15,10.99-35.17-37.75,12.58c-6.27-4.57-14.52-10.22-24.07-15.9-29.69-17.67-56.75-26.63-80.39-26.63h0Z"/>
    </g>
  </g>
  <g>
    <path class="cls-1" d="M2391.59,197.37h0s0,0,0,0c0,0,0,0,0,0h0c.66-.79,63.21-75.24,41.06-121.66-9.31-21-30.52-32.67-49.44-26.37-20.25,6.74-30.25,31.52-22.46,55.45-8.11-23.83-30.97-37.66-51.22-30.91-18.92,6.3-28.9,28.35-23.76,50.75,10.11,50.43,104.8,72.52,105.8,72.75Z"/>
    <path class="cls-1" d="M2554.1,197.43c-6.74-20.25-31.52-30.25-55.45-22.46,23.83-8.11,37.66-30.97,30.91-51.22-6.3-18.92-28.35-28.9-50.75-23.76-50.43,10.11-72.52,104.8-72.75,105.8h0s0,0,0,0c0,0,0,0,0,0h0c.78,.66,75.23,63.21,121.66,41.06,21-9.31,32.67-30.52,26.37-49.44Z"/>
    <path class="cls-1" d="M2399.55,221.24h0s0,0,0,0c0,0,0,0,0,0h0c-.66,.79-63.21,75.24-41.06,121.66,9.31,21,30.52,32.67,49.44,26.37,20.25-6.74,30.25-31.52,22.46-55.45,8.11,23.83,30.97,37.66,51.22,30.91,18.92-6.3,28.9-28.35,23.76-50.75-10.11-50.43-104.8-72.52-105.8-72.75Z"/>
    <path class="cls-1" d="M2383.9,213.19s0,0,0,0c0,0,0,0,0,0h0c-.79-.66-75.23-63.21-121.66-41.06-21,9.31-32.67,30.52-26.37,49.44,6.74,20.25,31.52,30.25,55.45,22.46-23.83,8.11-37.66,30.97-30.91,51.22,6.3,18.92,28.35,28.9,50.75,23.76,50.43-10.11,72.52-104.8,72.75-105.8h0Z"/>
  </g>
</svg>