<?xml version="1.0" encoding="UTF-8"?>
<svg id="St_Patricks" data-name="St Patricks" xmlns="http://www.w3.org/2000/svg" viewBox="0 0 3000 400">
  <defs>
    <style>
      .cls-1 {
        fill: #00b46f;
      }

      .cls-2 {
        fill: #231f20;
      }
    </style>
  </defs>
  <g>
    <path class="cls-2" d="M141.95,54.96l-11.73,62.01h84.22l-46.09,237.59h72.91l46.09-237.59h85.06l11.73-62.01H141.95Z"/>
    <path class="cls-2" d="M767.97,147.98c-15.09-9.22-32.69-14.25-57.41-14.25-70.81,0-118.58,60.76-118.58,128.22s44,98.89,102.24,98.89,92.6-28.91,106.01-70.39h-66.2c-6.71,15.08-20.53,21.79-36.88,21.79-30.59,0-38.55-20.54-38.97-47.35h147.08c7.96-53.22-3.35-95.54-37.29-116.91Zm-23.89,76.26h-80.45c7.54-26.4,24.72-42.32,46.09-42.32,25.56,0,35.2,19.28,34.36,42.32Z"/>
    <path class="cls-2" d="M963.23,292.12l46.1-237.16h-73.33l-57.83,299.6h202.39l11.73-62.44h-129.06Z"/>
    <path class="cls-2" d="M1162.69,54.96l-10.48,55.31h67.04l10.48-55.31h-67.04Zm-16.34,85.06l-41.49,214.54h67.05l41.48-214.54h-67.04Z"/>
    <path class="cls-2" d="M1337.42,134.15c-74.58,0-122.77,58.25-122.77,128.64,0,66.21,49.02,98.47,103.5,98.47,75,0,122.77-58.24,122.77-129.48-.42-65.78-48.61-97.63-103.5-97.63Zm-18.02,179.34c-27.65,0-37.29-22.21-37.29-47.77-.42-34.36,14.67-83.8,53.22-83.8,27.65,0,37.71,23.05,37.71,47.77,.42,35.2-14.67,83.8-53.64,83.8Z"/>
    <path class="cls-2" d="M1611.88,133.73c-30.59,0-51.96,15.51-69.14,40.23h-1.26l6.71-33.94h-64.95l-41.49,214.54h67.05l22.63-117.75c5.44-26.82,22.2-47.77,45.25-47.77s29.75,15.09,25.14,38.55l-24.72,126.97h67.04l25.56-131.99c10.48-55.32-14.66-88.84-57.82-88.84Z"/>
    <path class="cls-2" d="M1714.12,54.96l-11.73,62.43h27.65c-3.35,21.79-18.01,34.78-36.03,37.71l-5.03,24.31c19.69-.84,37.71-7.13,50.7-18.44,12.57-10.9,20.53-26.4,24.72-48.61l11.32-57.4h-61.6Z"/>
    <path class="cls-2" d="M1864.13,220.47c-30.17-8.38-46.51-12.57-46.51-25.14s14.24-18.02,28.07-18.02c19.28,0,30.59,10.06,32.27,25.14h61.59c-2.93-48.6-44-68.72-91.34-68.72-53.22,0-92.61,25.14-92.61,71.65,0,38.14,27.66,52.8,63.69,63.28,28.5,8.38,47.77,12.15,47.77,27.23s-12.15,20.54-29.75,20.54c-26.4,0-36.45-13.83-37.71-31.43h-63.69c2.09,53.63,49.86,76.26,100.14,76.26,58.25,0,94.28-26.4,94.28-76.26,0-40.23-32.68-54.89-66.2-64.53Z"/>
    <path class="cls-2" d="M2260.89,337.76c-.24-.14-.47-.29-.71-.44-12.66-7.98-21.77-19.48-26.35-33.23-4.42-13.26-4.08-27.71,.72-41.15-12.09-7.95-20.81-19.17-25.25-32.53-10.79-32.4,6.93-68.33,41.24-83.73,3.65-1.72,7.46-3.13,11.41-4.24-1.52-3.9-2.71-7.88-3.54-11.93-4.27-19.03-1.46-37.79,6.77-52.95-17.37-14.75-42.81-22.6-73.38-22.6h-124.03l-57.82,299.6h73.33l21.37-112.72h46.09c29.33,0,41.06,14.25,41.06,39.81,0,16.76-1.67,36.87-1.67,51.96,0,8.8,.84,17.18,3.77,20.95h72.49v-3.77c-2.84-1.9-4.74-6.42-5.5-13.03Zm-91.29-149.97h-54.06l14.25-74.59h50.7c24.3,0,36.46,12.15,36.46,33.1,0,29.33-21.79,41.49-47.35,41.49Z"/>
    <path class="cls-2" d="M2726.47,222.15c6.71-35.2-2.93-57.83-20.53-70.82-16.76-12.99-40.23-17.18-64.95-17.18-35.86,0-62.17,9.67-79.59,26.34,9,7.48,15.59,17.06,19.27,28.09,2.12,6.36,3.14,12.87,3.15,19.32h15.69c4.61-18.86,17.6-28.07,38.13-28.07,18.02,0,26.82,8.38,26.82,20.53,0,20.95-17.18,23.46-59.5,26.4-8.74,.63-17.11,1.58-24.98,2.96-6.45,17.95-20.73,33.7-40.55,42.59-3.29,1.55-6.7,2.85-10.23,3.91,1.51,3.88,2.69,7.84,3.52,11.88,4.01,17.83,1.78,35.44-5.29,50.06,12.32,14.33,31.75,21.84,53.64,21.84,25.14,0,44.42-12.15,58.67-28.91h.83c0,9.22,.84,18.44,3.36,23.47h64.53v-2.94c-3.78-4.61-4.61-14.24-1.26-30.58l19.27-98.89Zm-75.42,57.82c-5.03,23.47-21.79,36.46-44.84,36.46-16.34,0-27.65-7.55-27.65-24.31,0-24.72,23.88-25.98,41.06-28.91,15.92-2.51,26.82-5.03,36.46-9.64l-5.03,26.4Z"/>
    <path class="cls-2" d="M2886.12,136.67c-26.81,0-46.51,13.4-62.01,38.55h-1.26l7.12-35.2h-64.52l-41.49,214.54h67.05l18.01-93.86c10.06-51.54,36.04-68.3,79.2-62.02h1.26l11.73-60.34c-2.52-.84-7.96-1.67-15.09-1.67Z"/>
    <path class="cls-2" d="M518.65,133.73c-30.59,0-49.87,13.83-66.21,35.62h-1.26l22.21-114.39h-67.04l-57.83,299.6h67.05l22.62-117.75c5.45-26.82,21.79-47.77,45.26-47.77,22.21,0,29.75,15.09,25.14,38.55l-24.72,126.97h67.04l25.56-131.99c10.48-55.32-14.66-88.84-57.82-88.84Z"/>
  </g>
  <g>
    <path class="cls-1" d="M2391.59,197.37h0s0,0,0,0c0,0,0,0,0,0h0c.66-.79,63.21-75.24,41.06-121.66-9.31-21-30.52-32.67-49.44-26.37-20.25,6.74-30.25,31.52-22.46,55.45-8.11-23.83-30.97-37.66-51.22-30.91-18.92,6.3-28.9,28.35-23.76,50.75,10.11,50.43,104.8,72.52,105.8,72.75Z"/>
    <path class="cls-1" d="M2554.1,197.43c-6.74-20.25-31.52-30.25-55.45-22.46,23.83-8.11,37.66-30.97,30.91-51.22-6.3-18.92-28.35-28.9-50.75-23.76-50.43,10.11-72.52,104.8-72.75,105.8h0s0,0,0,0c0,0,0,0,0,0h0c.78,.66,75.23,63.21,121.66,41.06,21-9.31,32.67-30.52,26.37-49.44Z"/>
    <path class="cls-1" d="M2399.55,221.24h0s0,0,0,0c0,0,0,0,0,0h0c-.66,.79-63.21,75.24-41.06,121.66,9.31,21,30.52,32.67,49.44,26.37,20.25-6.74,30.25-31.52,22.46-55.45,8.11,23.83,30.97,37.66,51.22,30.91,18.92-6.3,28.9-28.35,23.76-50.75-10.11-50.43-104.8-72.52-105.8-72.75Z"/>
    <path class="cls-1" d="M2383.9,213.19s0,0,0,0c0,0,0,0,0,0h0c-.79-.66-75.23-63.21-121.66-41.06-21,9.31-32.67,30.52-26.37,49.44,6.74,20.25,31.52,30.25,55.45,22.46-23.83,8.11-37.66,30.97-30.91,51.22,6.3,18.92,28.35,28.9,50.75,23.76,50.43-10.11,72.52-104.8,72.75-105.8h0Z"/>
  </g>
</svg>