<?xml version="1.0" encoding="UTF-8"?>
<svg id="TypeOnly" xmlns="http://www.w3.org/2000/svg" viewBox="0 0 3000 400">
  <defs>
    <style>
      .cls-1 {
        fill: #231f20;
      }
    </style>
  </defs>
  <path class="cls-1" d="M214.44,116.97h-84.22l11.73-62.02h242.19l-11.73,62.02h-85.06l-46.09,237.58h-72.91l46.09-237.58Z"/>
  <path class="cls-1" d="M406.35,54.95h67.04l-22.21,114.39h1.26c16.34-21.79,35.62-35.62,66.21-35.62,43.16,0,68.3,33.52,57.82,88.83l-25.56,131.99h-67.04l24.72-126.96c4.61-23.47-2.93-38.55-25.14-38.55-23.46,0-39.81,20.95-45.25,47.77l-22.63,117.75h-67.04L406.35,54.95Z"/>
  <path class="cls-1" d="M658.18,264.89c.42,26.82,8.38,47.35,38.97,47.35,16.34,0,30.17-6.7,36.87-21.79h66.21c-13.41,41.48-50.7,70.4-106.01,70.4-58.24,0-102.24-33.1-102.24-98.89s47.77-128.22,118.58-128.22c24.72,0,42.32,5.03,57.41,14.25,33.94,21.37,45.25,63.69,37.29,116.91h-147.08Zm5.45-40.65h80.45c.84-23.05-8.8-42.32-34.36-42.32-21.37,0-38.55,15.92-46.09,42.32Z"/>
  <path class="cls-1" d="M936,54.95h73.33l-46.09,237.17h129.06l-11.73,62.43h-202.39l57.82-299.6Z"/>
  <path class="cls-1" d="M1146.35,140.02h67.04l-41.48,214.54h-67.04l41.48-214.54Zm16.34-85.06h67.04l-10.48,55.31h-67.04l10.48-55.31Z"/>
  <path class="cls-1" d="M1214.65,262.79c0-70.4,48.19-128.64,122.77-128.64,54.89,0,103.08,31.85,103.5,97.63,0,71.23-47.77,129.48-122.77,129.48-54.47,0-103.5-32.26-103.5-98.47Zm158.39-33.1c0-24.72-10.06-47.77-37.71-47.77-38.55,0-53.63,49.44-53.22,83.8,0,25.56,9.64,47.77,37.29,47.77,38.97,0,54.05-48.61,53.63-83.8Z"/>
  <path class="cls-1" d="M1483.24,140.02h64.95l-6.7,33.94h1.26c17.18-24.72,38.55-40.23,69.14-40.23,43.16,0,68.3,33.52,57.83,88.83l-25.56,131.99h-67.04l24.72-126.96c4.61-23.47-2.93-38.55-25.14-38.55s-39.81,20.95-45.25,47.77l-22.63,117.75h-67.04l41.48-214.54Z"/>
  <path class="cls-1" d="M1694.01,155.1c18.02-2.93,32.68-15.92,36.04-37.71h-27.66l11.73-62.43h61.6l-11.31,57.41c-4.19,22.21-12.15,37.71-24.72,48.61-12.99,11.31-31.01,17.6-50.7,18.44l5.03-24.3Z"/>
  <path class="cls-1" d="M1735.91,285h63.69c1.26,17.6,11.31,31.43,37.71,31.43,17.6,0,29.75-5.87,29.75-20.53s-19.28-18.86-47.77-27.24c-36.04-10.48-63.69-25.14-63.69-63.27,0-46.51,39.39-71.65,92.6-71.65,47.35,0,88.41,20.11,91.35,68.72h-61.6c-1.68-15.08-12.99-25.14-32.26-25.14-13.83,0-28.08,5.03-28.08,18.02s16.34,16.76,46.51,25.14c33.52,9.64,66.21,24.3,66.21,64.53,0,49.86-36.04,76.26-94.28,76.26-50.28,0-98.05-22.63-100.15-76.26Z"/>
  <path class="cls-1" d="M2067.78,54.95h124.03c58.66,0,98.47,28.91,98.47,80.03,0,44-23.46,68.3-63.27,80.03v1.26c23.05,8.38,35.62,26.4,35.62,56.57,0,15.08-2.09,38.55-2.09,57.83,0,10.48,2.09,17.6,5.87,20.11v3.77h-72.49c-2.93-3.77-3.77-12.15-3.77-20.95,0-15.08,1.68-35.2,1.68-51.96,0-25.56-11.73-39.81-41.06-39.81h-46.09l-21.37,112.72h-73.33l57.83-299.6Zm47.77,132.83h54.05c25.56,0,47.35-12.15,47.35-41.48,0-20.95-12.15-33.1-36.45-33.1h-50.7l-14.25,74.59Z"/>
  <path class="cls-1" d="M2279.8,262.79c0-70.4,48.19-128.64,122.77-128.64,54.89,0,103.08,31.85,103.5,97.63,0,71.23-47.77,129.48-122.77,129.48-54.47,0-103.5-32.26-103.5-98.47Zm158.39-33.1c0-24.72-10.06-47.77-37.71-47.77-38.55,0-53.63,49.44-53.22,83.8,0,25.56,9.64,47.77,37.29,47.77,38.97,0,54.05-48.61,53.63-83.8Z"/>
  <path class="cls-1" d="M2513.61,297.99c0-52.38,38.97-67.46,91.35-71.23,42.32-2.93,59.5-5.45,59.5-26.4,0-12.15-8.8-20.53-26.82-20.53-20.53,0-33.52,9.22-38.13,28.07h-62.43c7.96-44.42,41.48-73.75,103.92-73.75,24.72,0,48.19,4.19,64.95,17.18,17.6,12.99,27.24,35.62,20.53,70.81l-19.27,98.89c-3.35,16.34-2.51,25.98,1.26,30.59v2.93h-64.53c-2.51-5.03-3.35-14.25-3.35-23.46h-.84c-14.25,16.76-33.52,28.91-58.66,28.91-37.29,0-67.46-21.79-67.46-62.02Zm137.44-18.02l5.03-26.4c-9.64,4.61-20.53,7.12-36.46,9.64-17.18,2.93-41.06,4.19-41.06,28.91,0,16.76,11.31,24.3,27.66,24.3,23.05,0,39.81-12.99,44.83-36.46Z"/>
  <path class="cls-1" d="M2765.45,140.02h64.53l-7.12,35.2h1.26c15.5-25.14,35.2-38.55,62.01-38.55,7.12,0,12.57,.84,15.08,1.68l-11.73,60.34h-1.26c-43.16-6.29-69.14,10.48-79.2,62.02l-18.02,93.86h-67.04l41.48-214.54Z"/>
</svg>