<?xml version="1.0" encoding="UTF-8"?>
<svg id="Christmas" xmlns="http://www.w3.org/2000/svg" viewBox="0 0 3000 400">
  <defs>
    <style>
      .cls-1 {
        fill: #00b46f;
      }

      .cls-2 {
        fill: #fff;
      }

      .cls-3 {
        fill: #dc253d;
      }
    </style>
  </defs>
  <g>
    <path class="cls-3" d="M214.44,116.97h-84.22l11.73-62.01h242.19l-11.73,62.01h-85.06l-46.09,237.59h-72.91l46.09-237.59Z"/>
    <path class="cls-3" d="M406.35,54.96h67.04l-22.21,114.39h1.26c16.34-21.79,35.62-35.62,66.21-35.62,43.16,0,68.3,33.52,57.82,88.83l-25.56,131.99h-67.04l24.72-126.96c4.61-23.46-2.93-38.55-25.14-38.55-23.46,0-39.81,20.95-45.25,47.77l-22.63,117.75h-67.04L406.35,54.96Z"/>
    <path class="cls-3" d="M658.18,264.88c.42,26.82,8.38,47.35,38.97,47.35,16.34,0,30.17-6.7,36.87-21.79h66.21c-13.41,41.48-50.7,70.4-106.01,70.4-58.24,0-102.24-33.1-102.24-98.89s47.77-128.22,118.58-128.22c24.72,0,42.32,5.03,57.41,14.25,33.94,21.37,45.25,63.69,37.29,116.91h-147.08Zm5.45-40.65h80.45c.84-23.05-8.8-42.32-34.36-42.32-21.37,0-38.55,15.92-46.09,42.32Z"/>
    <g>
      <path class="cls-1" d="M878.17,363.56c-2.69,0-5.23-1.2-6.94-3.27-1.71-2.07-2.41-4.8-1.9-7.44l57.83-299.6c.82-4.23,4.52-7.29,8.84-7.29h73.33c2.69,0,5.24,1.2,6.94,3.28,1.71,2.07,2.4,4.8,1.89,7.44l-44.01,226.45h118.14c2.68,0,5.22,1.19,6.93,3.25,1.71,2.06,2.41,4.78,1.92,7.41l-11.73,62.43c-.8,4.25-4.51,7.34-8.84,7.34h-202.39Z"/>
      <path class="cls-2" d="M1009.33,54.96l-46.09,237.17h129.06l-11.73,62.43h-202.39l57.83-299.6h73.33m0-18h-73.33c-8.63,0-16.04,6.12-17.67,14.59l-57.83,299.6c-1.02,5.27,.37,10.73,3.79,14.87,3.42,4.14,8.51,6.54,13.88,6.54h202.39c8.66,0,16.09-6.17,17.69-14.68l11.73-62.43c.99-5.26-.42-10.69-3.84-14.82-3.42-4.12-8.5-6.51-13.85-6.51h-107.22l41.93-215.73c1.03-5.28-.36-10.74-3.78-14.88-3.42-4.15-8.51-6.55-13.89-6.55h0Z"/>
    </g>
    <g>
      <path class="cls-1" d="M1104.86,363.56c-2.69,0-5.23-1.2-6.94-3.27-1.71-2.07-2.41-4.8-1.89-7.44l41.48-214.54c.82-4.23,4.52-7.29,8.84-7.29h67.04c2.69,0,5.23,1.2,6.94,3.27,1.71,2.07,2.41,4.8,1.89,7.44l-41.48,214.54c-.82,4.23-4.52,7.29-8.84,7.29h-67.04Zm47.35-244.29c-2.68,0-5.22-1.19-6.93-3.26-1.71-2.06-2.41-4.78-1.91-7.42l10.48-55.31c.8-4.25,4.52-7.33,8.84-7.33h67.04c2.68,0,5.22,1.19,6.93,3.26,1.71,2.06,2.41,4.78,1.91,7.42l-10.48,55.31c-.8,4.25-4.52,7.33-8.84,7.33h-67.04Z"/>
      <path class="cls-2" d="M1229.73,54.96l-10.48,55.31h-67.04l10.48-55.31h67.04m-16.34,85.06l-41.48,214.54h-67.04l41.48-214.54h67.04m16.34-103.06h-67.04c-8.65,0-16.08,6.15-17.69,14.65l-10.48,55.31c-1,5.27,.4,10.7,3.82,14.83,.44,.53,.91,1.04,1.41,1.51-5.6,2.2-9.89,7.14-11.09,13.34l-41.48,214.54c-1.02,5.27,.37,10.73,3.79,14.87,3.42,4.14,8.51,6.54,13.88,6.54h67.04c8.62,0,16.04-6.12,17.67-14.58l41.48-214.54c1.02-5.27-.37-10.73-3.79-14.87-.45-.54-.93-1.06-1.43-1.54,5.62-2.21,9.92-7.18,11.1-13.4l10.48-55.31c1-5.27-.4-10.7-3.82-14.83-3.42-4.13-8.5-6.52-13.86-6.52h0Z"/>
    </g>
    <g>
      <path class="cls-1" d="M1318.15,370.26c-56,0-112.5-33.23-112.5-107.47,0-37.2,12.71-71.57,35.78-96.79,24.1-26.34,58.19-40.85,96-40.85,30.44,0,58.15,9.34,78.02,26.3,22.34,19.07,34.27,46.83,34.48,80.27,0,37.67-12.64,72.29-35.6,97.56-24,26.42-58.16,40.97-96.17,40.97Zm17.18-179.34c-9.01,0-16.65,3.31-23.37,10.11-14.76,14.94-21.1,43.2-20.84,64.59,0,.04,0,.07,0,.11,0,12.03,2.33,21.87,6.75,28.46,4.65,6.94,11.7,10.31,21.54,10.31,9.31,0,17.17-3.36,24-10.28,15.61-15.79,20.87-44.57,20.63-64.41,0-.04,0-.07,0-.11,0-33.73-17.99-38.77-28.71-38.77Z"/>
      <path class="cls-2" d="M1337.42,134.15c54.89,0,103.08,31.85,103.5,97.63,0,71.23-47.77,129.48-122.77,129.48-54.47,0-103.5-32.26-103.5-98.47,0-70.4,48.19-128.64,122.77-128.64m-18.02,179.34c38.97,0,54.05-48.61,53.63-83.8,0-24.72-10.06-47.77-37.71-47.77-38.55,0-53.63,49.44-53.22,83.8,0,25.56,9.64,47.77,37.29,47.77m18.02-197.34c-20.62,0-40.09,3.94-57.86,11.71-17.08,7.47-32.15,18.25-44.78,32.06-24.59,26.88-38.14,63.42-38.14,102.87,0,36.3,13,66.64,37.61,87.73,21.62,18.53,51.42,28.74,83.89,28.74,20.73,0,40.26-3.94,58.04-11.72,17.12-7.49,32.19-18.32,44.8-32.2,24.46-26.93,37.94-63.7,37.94-103.55,0-.04,0-.08,0-.11-.23-36.14-13.24-66.24-37.64-87.06-21.5-18.35-51.28-28.46-83.86-28.46h0Zm-18.02,179.34c-8.66,0-11.97-3.2-14.07-6.32-3.37-5.02-5.22-13.35-5.22-23.44,0-.07,0-.15,0-.22-.23-18.88,5.38-45.13,18.25-58.15,5.01-5.07,10.4-7.43,16.97-7.43,8.69,0,12.21,3.57,14.3,6.68,3.49,5.17,5.41,13.37,5.41,23.09,0,.07,0,.14,0,.21,.32,27.12-8.83,48.66-18.04,57.98-5.13,5.19-10.72,7.61-17.6,7.61h0Z"/>
    </g>
    <g>
      <path class="cls-1" d="M1577.1,363.56c-2.69,0-5.24-1.2-6.95-3.28-1.71-2.08-2.4-4.8-1.89-7.44l24.72-126.96c2.07-10.52,1.25-18.67-2.29-22.97-2.65-3.22-7.37-4.86-14.02-4.86-13.01,0-30.35,10.62-36.43,40.56l-22.61,117.65c-.81,4.24-4.52,7.3-8.84,7.3h-67.04c-2.69,0-5.23-1.2-6.94-3.27-1.71-2.07-2.41-4.8-1.89-7.44l41.48-214.54c.82-4.23,4.52-7.29,8.84-7.29h64.95c2.69,0,5.24,1.21,6.95,3.29,1.71,2.08,2.4,4.82,1.88,7.46l-.67,3.41c16.09-13.71,34.45-20.44,55.54-20.44,22.22,0,40.51,7.9,52.9,22.86,15.06,18.18,19.82,44.69,13.77,76.65l-25.57,132.03c-.82,4.23-4.53,7.29-8.84,7.29h-67.04Z"/>
      <path class="cls-2" d="M1611.88,133.73c43.16,0,68.3,33.52,57.83,88.83l-25.56,131.99h-67.04l24.72-126.96c4.61-23.46-2.93-38.55-25.14-38.55s-39.81,20.95-45.25,47.77l-22.63,117.75h-67.04l41.48-214.54h64.95l-6.7,33.94h1.26c17.18-24.72,38.55-40.23,69.14-40.23m0-18c-18.21,0-34.53,4.49-49.21,13.6-.19-.25-.38-.5-.58-.74-3.42-4.16-8.52-6.57-13.91-6.57h-64.95c-8.62,0-16.04,6.12-17.67,14.58l-41.48,214.54c-1.02,5.27,.37,10.73,3.79,14.87,3.42,4.14,8.51,6.54,13.88,6.54h67.04c8.63,0,16.05-6.13,17.68-14.6l22.61-117.64c3.39-16.57,13.23-33.27,27.6-33.27,3.99,0,6.42,.79,7.07,1.58,.96,1.17,2.29,5.92,.41,15.5l-24.73,126.99c-1.03,5.28,.36,10.74,3.78,14.89,3.42,4.15,8.51,6.55,13.89,6.55h67.04c8.62,0,16.03-6.11,17.67-14.58l25.56-131.99s0-.05,.01-.07c3.21-16.93,3.54-32.66,1-46.76-2.63-14.57-8.24-27.12-16.68-37.31-7.1-8.57-15.97-15.17-26.36-19.62-10.05-4.31-21.31-6.49-33.47-6.49h0Z"/>
    </g>
    <g>
      <path class="cls-1" d="M1688.98,188.4c-2.63,0-5.14-1.15-6.86-3.17-1.8-2.11-2.52-4.94-1.96-7.65l5.03-24.3c.76-3.65,3.69-6.46,7.37-7.06,12.09-1.97,21.06-9.02,25.69-19.83h-15.86c-2.68,0-5.22-1.19-6.93-3.25-1.71-2.06-2.41-4.78-1.92-7.41l11.73-62.43c.8-4.25,4.52-7.34,8.84-7.34h61.6c2.69,0,5.24,1.21,6.95,3.28s2.4,4.81,1.88,7.46l-11.31,57.41c-4.57,24.2-13.36,41.28-27.66,53.67-14.19,12.36-34.16,19.69-56.21,20.63-.13,0-.26,0-.38,0Z"/>
      <path class="cls-2" d="M1775.72,54.96l-11.31,57.41c-4.19,22.21-12.15,37.71-24.72,48.61-12.99,11.31-31.01,17.6-50.7,18.44l5.03-24.3c18.02-2.93,32.68-15.92,36.04-37.71h-27.66l11.73-62.43h61.6m0-18h-61.6c-8.66,0-16.09,6.17-17.69,14.68l-11.73,62.43c-.99,5.26,.42,10.7,3.84,14.82,2.6,3.13,6.16,5.26,10.07,6.1-2.7,1.32-5.34,2-7.49,2.35-7.36,1.2-13.22,6.81-14.73,14.12l-5.03,24.3c-1.12,5.43,.32,11.08,3.91,15.31,3.43,4.03,8.45,6.34,13.71,6.34,.26,0,.51,0,.77-.02,24.09-1.02,46.02-9.14,61.76-22.85,15.65-13.56,25.66-32.8,30.57-58.77l11.3-57.33c1.04-5.28-.34-10.75-3.76-14.91-3.42-4.16-8.52-6.57-13.9-6.57h0Z"/>
    </g>
    <g>
      <path class="cls-1" d="M1836.05,370.26c-28.74,0-54.03-6.76-73.15-19.54-22.46-15.02-34.91-37.62-35.99-65.37-.1-2.45,.81-4.83,2.51-6.59,1.7-1.76,4.04-2.76,6.49-2.76h63.69c4.72,0,8.64,3.65,8.98,8.36,.71,9.9,4.46,23.07,28.73,23.07,20.75,0,20.75-8.38,20.75-11.53,0-1.5,0-3.78-5.93-6.95-5.98-3.2-15.58-5.95-26.7-9.14-2.78-.8-5.68-1.63-8.68-2.51-22.69-6.6-37.71-13.71-48.66-23.05-14.46-12.34-21.49-28.32-21.49-48.85,0-48.99,39.88-80.65,101.6-80.65,26.84,0,50.12,6.11,67.34,17.66,20.04,13.45,31.45,34.03,32.99,59.52,.15,2.48-.73,4.91-2.43,6.71-1.7,1.81-4.07,2.83-6.55,2.83h-61.6c-4.59,0-8.44-3.45-8.95-8.01-.71-6.4-4.69-17.13-23.32-17.13-.78,0-19.08,.1-19.08,9.02,0,5.39,17.39,10.22,37.54,15.81l2.38,.66c15.2,4.37,34.41,10.85,48.89,22.44,15.86,12.7,23.91,29.78,23.91,50.76,0,27-9.93,49.09-28.73,63.9-17.99,14.17-43.08,21.36-74.55,21.36Z"/>
      <path class="cls-2" d="M1848.21,133.73c47.35,0,88.41,20.11,91.35,68.72h-61.6c-1.68-15.08-12.99-25.14-32.26-25.14-13.83,0-28.08,5.03-28.08,18.02s16.34,16.76,46.51,25.14c33.52,9.64,66.21,24.3,66.21,64.53,0,49.86-36.04,76.26-94.28,76.26-50.28,0-98.05-22.63-100.15-76.26h63.69c1.26,17.6,11.31,31.43,37.71,31.43,17.6,0,29.75-5.87,29.75-20.53s-19.28-18.86-47.77-27.24c-36.04-10.48-63.69-25.14-63.69-63.27,0-46.51,39.39-71.65,92.6-71.65m0-18c-30.8,0-57.39,7.56-76.9,21.87-10.7,7.85-19.03,17.54-24.76,28.81-5.93,11.67-8.94,24.78-8.94,38.98,0,23,8.29,41.75,24.65,55.7,2.49,2.12,5.12,4.09,7.84,5.91h-34.18c-4.9,0-9.58,1.99-12.97,5.52s-5.2,8.29-5.01,13.18c1.2,30.75,15.03,55.82,39.99,72.5,20.6,13.77,47.62,21.05,78.15,21.05,33.54,0,60.5-7.84,80.12-23.29,21.04-16.57,32.16-41.11,32.16-70.97,0-23.85-9.18-43.29-27.28-57.79-3.08-2.46-6.33-4.71-9.69-6.76h28.19c4.96,0,9.7-2.05,13.11-5.66,3.4-3.61,5.16-8.47,4.86-13.42-1.71-28.4-14.49-51.38-36.96-66.45-18.71-12.55-43.73-19.18-72.36-19.18h0Zm-5.36,79.68c.88-.07,1.83-.11,2.85-.11,8.32,0,11.73,2.48,13.2,5.01-5.72-1.62-11.47-3.31-16.05-4.91h0Zm-5.53,103.01c-14.78,0-18.33-5.09-19.39-11.42,1.71,.5,3.39,.98,5.03,1.45,7.86,2.26,14.65,4.2,19.86,6.19,2.48,.95,4.15,1.73,5.25,2.33-1.6,.62-4.84,1.46-10.74,1.46h0Z"/>
    </g>
    <path class="cls-3" d="M2067.78,54.96h124.03c58.66,0,98.47,28.91,98.47,80.03,0,44-23.46,68.3-63.27,80.03v1.26c23.05,8.38,35.62,26.4,35.62,56.57,0,15.08-2.09,38.55-2.09,57.83,0,10.48,2.09,17.6,5.87,20.11v3.77h-72.49c-2.93-3.77-3.77-12.15-3.77-20.95,0-15.08,1.68-35.2,1.68-51.96,0-25.56-11.73-39.81-41.06-39.81h-46.09l-21.37,112.72h-73.33l57.83-299.6Zm47.77,132.83h54.05c25.56,0,47.35-12.15,47.35-41.48,0-20.95-12.15-33.1-36.45-33.1h-50.7l-14.25,74.59Z"/>
    <path class="cls-3" d="M2513.61,297.99c0-52.38,38.97-67.46,91.35-71.23,42.32-2.93,59.5-5.45,59.5-26.4,0-12.15-8.8-20.53-26.82-20.53-20.53,0-33.52,9.22-38.13,28.07h-62.43c7.96-44.42,41.48-73.75,103.92-73.75,24.72,0,48.19,4.19,64.95,17.18,17.6,12.99,27.24,35.62,20.53,70.81l-19.27,98.89c-3.35,16.34-2.51,25.98,1.26,30.59v2.93h-64.53c-2.51-5.03-3.35-14.25-3.35-23.46h-.84c-14.25,16.76-33.52,28.91-58.66,28.91-37.29,0-67.46-21.79-67.46-62.02Zm137.44-18.02l5.03-26.4c-9.64,4.61-20.53,7.12-36.46,9.64-17.18,2.93-41.06,4.19-41.06,28.91,0,16.76,11.31,24.3,27.66,24.3,23.05,0,39.81-12.99,44.83-36.46Z"/>
    <path class="cls-3" d="M2765.45,140.02h64.53l-7.12,35.2h1.26c15.5-25.14,35.2-38.55,62.01-38.55,7.12,0,12.57,.84,15.08,1.68l-11.73,60.34h-1.26c-43.16-6.29-69.14,10.48-79.2,62.01l-18.02,93.86h-67.04l41.48-214.54Z"/>
  </g>
  <g>
    <g>
      <path class="cls-1" d="M2261.98,401.49c-1.95,0-3.9-.63-5.53-1.9-3.46-2.7-4.48-7.48-2.41-11.34,9.27-17.29,12.98-33.66,10.71-47.34-1.6-9.63-5.54-14.7-6.03-15.3-2.41-2.57-3.02-6.21-1.68-9.48,1.34-3.28,4.58-5.38,8.13-5.49,8.12-.26,14.21-2.97,18.62-8.28,10.53-12.68,9.48-37.41,8.19-45.88-.4-2.63,.38-5.3,2.14-7.3,1.71-1.95,4.17-3.06,6.76-3.06,.07,0,.14,0,.21,0,.34,0,.68,.01,1.02,.01,20.41,0,35.62-14.16,44.52-25.46-10.24-10.99-23.12-15.67-23.27-15.72-3.32-1.14-5.67-4.11-6.02-7.6-.35-3.49,1.35-6.87,4.38-8.66,16.48-9.74,25.48-21.46,24.7-32.16-.7-9.53-9.47-18.41-24.06-24.37-2.97-1.21-5.08-3.92-5.51-7.11-.44-3.18,.86-6.36,3.39-8.33,29.41-22.87,23.79-74.94,23.73-75.46-.51-4.4,2.27-8.52,6.54-9.71,.8-.22,1.61-.33,2.41-.33,3.46,0,6.7,2,8.19,5.28,20.38,44.87,51.54,54.85,52.85,55.25,2.8,.82,5,2.93,5.96,5.69,.95,2.76,.49,5.79-1.21,8.17-4.72,6.61-6.27,13.1-4.73,19.82,3.68,16.07,23.97,30.25,31.48,34.36,2.33,1.28,3.98,3.52,4.51,6.13s-.14,5.32-1.8,7.39c-6.36,7.94-9.74,17.82-10.07,29.43,8.76,7.92,19.66,11.94,32.44,11.94,12.5,0,22.27-3.93,22.37-3.97,1.12-.46,2.29-.69,3.46-.69,2.22,0,4.4,.82,6.09,2.38,2.58,2.38,3.55,6.04,2.48,9.38-5.23,16.29-4.9,30.19,.9,38.14,3.86,5.29,10.02,7.98,18.33,7.98,5.37,0,11.37-1.16,17.84-3.43,.98-.34,1.99-.51,2.99-.51,2.12,0,4.2,.75,5.85,2.16,2.44,2.09,3.58,5.32,3,8.48-6.8,36.63,31.98,71.83,32.37,72.18,3.3,2.96,3.97,7.88,1.56,11.6-1.71,2.64-4.59,4.12-7.56,4.12-1.23,0-2.47-.25-3.65-.78-16.37-7.27-32.59-10.96-48.24-10.96-17.39,0-27.87,4.71-27.97,4.75-1.21,.58-2.52,.86-3.82,.86-1.52,0-3.04-.39-4.41-1.16-2.54-1.43-4.21-4.01-4.52-6.91-2.63-24.67-28.35-24.67-36.81-24.67-10.52,0-19.1,1.92-19.19,1.93-.66,.15-1.33,.22-1.99,.22-1.95,0-3.86-.63-5.44-1.83-2.12-1.6-3.42-4.06-3.56-6.71-.7-13.84-7.96-24.87-15.83-32.87-9.89,19.64-2.86,41.45-2.78,41.7,1.11,3.33,.18,7-2.38,9.4-1.7,1.59-3.91,2.44-6.16,2.44-1.14,0-2.28-.21-3.38-.66-8.85-3.58-16.92-5.4-23.99-5.4-5.89,0-13.95,1.35-18.87,7.79-5.22,6.82-6.09,17.98-2.45,31.43,.84,3.1-.04,6.42-2.3,8.7-1.71,1.72-4.02,2.66-6.39,2.66-.76,0-1.53-.1-2.29-.3-5.29-1.39-10.74-2.1-16.18-2.1-28.22,0-49.34,18.92-49.55,19.11-1.71,1.56-3.89,2.35-6.07,2.35Z"/>
      <path class="cls-2" d="M2352.89,40.24c22.55,49.67,58.47,60.15,58.47,60.15-26.21,36.69,29.76,67.31,29.76,67.31-9.69,12.09-12.36,26.21-12.05,38.85,13,13.54,28.57,17.14,41.45,17.14,14.65,0,25.83-4.66,25.83-4.66-11.46,35.67,1.69,57.87,27.79,57.87,6.25,0,13.25-1.27,20.83-3.94-7.84,42.21,35.23,80.54,35.23,80.54-20.39-9.06-38.09-11.74-51.89-11.74-19.95,0-31.77,5.59-31.77,5.59-2.92-27.39-27.26-32.72-45.76-32.72-11.78,0-21.19,2.16-21.19,2.16-1.08-21.21-14.55-36.52-26.63-46.09-20.46,25.23-9.5,58.21-9.5,58.21-10.21-4.13-19.41-6.06-27.36-6.06-25.6,0-38.3,19.95-30.01,50.57-6.4-1.69-12.58-2.4-18.47-2.4-32.31,0-55.63,21.47-55.63,21.47,25.78-48.07,3.48-72.87,3.48-72.87,45.06-1.45,35.42-64.51,35.42-64.51,.41,0,.82,.01,1.23,.01,28.49,0,47.83-22.97,55.89-34.77-12.45-17.28-31.72-23.92-31.72-23.92,39.98-23.63,37.95-56.89-.54-72.61,33.89-26.35,27.15-83.61,27.15-83.61m-.03-18.05c-1.61,0-3.24,.22-4.85,.67-8.55,2.41-14.07,10.64-12.99,19.45,.06,.58,1.35,13.15-.92,28.05-1.91,12.52-6.82,29.49-19.4,39.27-5.07,3.94-7.66,10.29-6.78,16.66,.88,6.37,5.08,11.78,11.03,14.21,10.98,4.48,18.07,10.88,18.49,16.69,.4,5.45-4.73,14.55-20.3,23.76-6.08,3.6-9.63,10.38-8.86,17.4,.76,7,5.41,12.87,12.09,15.09,.66,.25,7.02,2.72,13.69,7.9-7.6,7.8-18.63,15.79-31.94,15.79-.27,0-.54,0-.81,0-.14,0-.28,0-.43,0-5.19,0-10.13,2.19-13.55,6.1-3.51,4.02-5.06,9.33-4.23,14.59,1.01,6.97,2.03,28.93-6.24,38.82-1.85,2.21-4.87,4.77-11.96,5-7.21,.23-13.99,4.32-16.6,11.05-2.58,6.64-1.39,13.76,3.6,18.79,1.59,2.24,12.12,19.15-5.77,52.52-4.17,7.78-2.17,17.51,4.84,22.87,3.27,2.5,7.13,3.74,10.98,3.74,4.4,0,8.77-1.62,12.19-4.83,.96-.84,19.46-16.75,43.48-16.75,4.67,0,9.34,.61,13.89,1.8,1.52,.4,3.06,.59,4.58,.59,4.73,0,9.35-1.87,12.77-5.32,4.53-4.56,6.28-11.19,4.6-17.39-2.81-10.37-2.47-19.19,.91-23.61,2.16-2.82,6.11-4.26,11.73-4.26s12.94,1.64,20.61,4.74c2.23,.9,4.58,1.35,6.91,1.35,4.5,0,8.92-1.66,12.3-4.87,5.1-4.86,6.94-12.12,4.65-18.77-.23-.75-2.46-8.5-1.94-18.09,1.78,4.05,2.78,8.21,2.99,12.49,.27,5.33,2.84,10.29,7.11,13.49,3.15,2.37,6.93,3.62,10.78,3.62,1.36,0,2.73-.16,4.08-.47,.5-.11,8.05-1.71,17.19-1.71,8.46,0,15.43,1.35,20.14,3.91,3.34,1.81,6.87,4.74,7.72,12.72,.63,5.88,3.89,11.19,9.09,14.01,2.73,1.48,5.69,2.24,8.65,2.24,2.64,0,5.28-.6,7.76-1.84,1.05-.43,9.93-3.92,24.18-3.92s29.38,3.43,44.58,10.19c2.37,1.05,4.87,1.56,7.34,1.56,5.98,0,11.77-2.96,15.16-8.26,4.8-7.48,3.45-17.32-3.22-23.19-.06-.05-9.57-8.68-17.92-21.56-6.89-10.62-14.48-26.58-11.57-42.25,1.17-6.32-1.11-12.78-5.99-16.96-3.31-2.83-7.48-4.33-11.71-4.33-2.01,0-4.03,.34-5.98,1.02-5.51,1.94-10.5,2.92-14.85,2.92-5.27,0-8.98-1.44-11.05-4.28-4.03-5.52-3.88-16.77,.4-30.09,2.16-6.73,.31-14.15-4.93-18.9-3.39-3.07-7.69-4.7-12.06-4.7-2.36,0-4.74,.47-7,1.45-.76,.29-8.85,3.3-18.97,3.3-9.04,0-16.68-2.29-23.15-6.97,.86-7.75,3.48-14.38,7.8-19.77,3.34-4.17,4.7-9.58,3.64-14.81-1.06-5.23-4.34-9.69-9.03-12.23-6.15-3.43-24.22-15.95-27.06-28.53-.63-2.81-.83-6.77,3.29-12.54,3.44-4.81,4.52-10.95,2.51-16.51-2-5.53-6.33-9.67-12-11.2-.94-.33-7.82-2.85-16.56-9.69-12.58-9.84-22.91-23.52-30.69-40.66-2.98-6.57-9.5-10.61-16.42-10.61h0Z"/>
    </g>
    <g>
      <path class="cls-3" d="M2424.05,258.13c-13.45,0-25.06-9.14-28.23-22.22-1.83-7.55-.61-15.35,3.43-21.99,4.04-6.63,10.42-11.29,17.97-13.12,2.26-.55,4.57-.83,6.88-.83,13.45,0,25.06,9.14,28.23,22.22,3.78,15.58-5.82,31.33-21.4,35.11-2.26,.55-4.57,.83-6.88,.83Z"/>
      <path class="cls-2" d="M2424.1,203.48c11.53,0,21.99,7.85,24.83,19.55,3.33,13.73-5.1,27.55-18.82,30.88-2.03,.49-4.05,.73-6.05,.73-11.53,0-21.99-7.85-24.83-19.55-3.33-13.73,5.1-27.55,18.82-30.88,2.03-.49,4.05-.73,6.05-.73m0-7h0c-2.58,0-5.17,.31-7.7,.92-17.45,4.23-28.21,21.88-23.98,39.33,3.56,14.66,16.57,24.9,31.63,24.9,2.58,0,5.17-.31,7.7-.92,8.46-2.05,15.61-7.27,20.13-14.7,4.53-7.43,5.89-16.18,3.84-24.63-3.56-14.66-16.56-24.9-31.63-24.9h0Z"/>
    </g>
    <g>
      <path class="cls-3" d="M2375.65,235.62c-15.01,0-27.96-10.2-31.51-24.8-2.04-8.42-.68-17.14,3.83-24.54,4.51-7.4,11.63-12.6,20.05-14.64,2.52-.61,5.1-.92,7.67-.92,15.01,0,27.96,10.2,31.51,24.8,2.04,8.42,.68,17.14-3.83,24.54-4.51,7.4-11.63,12.6-20.05,14.64-2.52,.61-5.1,.92-7.67,.92Z"/>
      <path class="cls-2" d="M2375.69,174.21c13.05,0,24.89,8.89,28.11,22.13,3.77,15.54-5.77,31.18-21.31,34.95-2.29,.56-4.59,.82-6.85,.82-13.05,0-24.89-8.89-28.11-22.13-3.77-15.54,5.77-31.18,21.31-34.95,2.29-.56,4.59-.82,6.85-.82m0-7h0c-2.85,0-5.71,.34-8.5,1.02-9.33,2.26-17.22,8.03-22.22,16.22-5,8.2-6.5,17.85-4.24,27.18,3.92,16.18,18.28,27.48,34.91,27.48,2.85,0,5.71-.34,8.5-1.02,9.33-2.26,17.22-8.03,22.22-16.22,5-8.2,6.5-17.85,4.24-27.18-3.92-16.18-18.28-27.48-34.91-27.48h0Z"/>
    </g>
    <g>
      <path class="cls-3" d="M2375.95,285.41c-14.72,0-27.43-10-30.9-24.33-4.14-17.05,6.37-34.29,23.42-38.43,2.47-.6,5-.9,7.53-.9,14.72,0,27.43,10,30.9,24.33,2,8.26,.67,16.81-3.75,24.07-4.42,7.26-11.41,12.36-19.67,14.36-2.47,.6-5,.9-7.53,.9Z"/>
      <path class="cls-2" d="M2376,225.25c12.77,0,24.36,8.69,27.5,21.65,3.69,15.2-5.65,30.51-20.85,34.2-2.24,.54-4.49,.8-6.7,.8-12.77,0-24.36-8.69-27.5-21.65-3.69-15.2,5.65-30.51,20.85-34.2,2.24-.54,4.49-.8,6.7-.8m0-7h0c-2.8,0-5.61,.34-8.35,1-9.17,2.22-16.92,7.89-21.83,15.94-4.91,8.06-6.39,17.54-4.17,26.71,3.86,15.9,17.96,27,34.3,27,2.8,0,5.61-.34,8.35-1,18.93-4.59,30.59-23.73,26-42.66-3.86-15.9-17.96-27-34.3-27h0Z"/>
    </g>
  </g>
</svg>