<?xml version="1.0" encoding="UTF-8"?>
<svg id="Halloween" xmlns="http://www.w3.org/2000/svg" viewBox="0 0 3000 400">
  <defs>
    <style>
      .cls-1 {
        fill: #f4e399;
      }

      .cls-2 {
        fill: #f77100;
      }

      .cls-3 {
        fill: #fff;
      }

      .cls-4 {
        fill: #ffd33f;
      }

      .cls-5 {
        fill: #231f20;
      }

      .cls-6 {
        fill: #580;
      }
    </style>
  </defs>
  <g>
    <path class="cls-5" d="M209.87,116.81H125.65l11.73-62.02h242.19l-11.73,62.02h-85.06l-46.09,237.59h-72.91l46.09-237.59Z"/>
    <path class="cls-5" d="M401.78,54.79h67.04l-22.21,114.39h1.26c16.34-21.79,35.62-35.62,66.21-35.62,43.16,0,68.3,33.52,57.82,88.83l-25.56,131.99h-67.04l24.72-126.96c4.61-23.47-2.93-38.55-25.14-38.55-23.46,0-39.81,20.95-45.25,47.77l-22.63,117.75h-67.04L401.78,54.79Z"/>
    <path class="cls-5" d="M653.61,264.73c.42,26.82,8.38,47.35,38.97,47.35,16.34,0,30.17-6.7,36.87-21.79h66.21c-13.41,41.48-50.7,70.4-106.01,70.4-58.24,0-102.24-33.1-102.24-98.89s47.77-128.22,118.58-128.22c24.72,0,42.32,5.03,57.41,14.25,33.94,21.37,45.25,63.69,37.29,116.91h-147.08Zm5.45-40.65h80.45c.84-23.05-8.8-42.32-34.36-42.32-21.37,0-38.55,15.92-46.09,42.32Z"/>
    <path class="cls-5" d="M931.43,54.79h73.33l-46.09,237.17h129.06l-11.73,62.44h-202.39l57.83-299.6Z"/>
    <path class="cls-5" d="M1141.78,139.86h67.04l-41.48,214.54h-67.04l41.48-214.54Zm16.34-85.06h67.04l-10.48,55.31h-67.04l10.48-55.31Z"/>
    <path class="cls-5" d="M1689.44,154.94c18.02-2.93,32.68-15.92,36.04-37.71h-27.66l11.73-62.44h61.6l-11.31,57.41c-4.19,22.21-12.15,37.71-24.72,48.61-12.99,11.31-31.01,17.6-50.7,18.44l5.03-24.3Z"/>
    <path class="cls-5" d="M1731.34,284.84h63.69c1.26,17.6,11.31,31.43,37.71,31.43,17.6,0,29.75-5.87,29.75-20.53s-19.28-18.86-47.77-27.24c-36.04-10.47-63.69-25.14-63.69-63.27,0-46.51,39.39-71.65,92.6-71.65,47.35,0,88.41,20.11,91.35,68.72h-61.6c-1.68-15.08-12.99-25.14-32.26-25.14-13.83,0-28.08,5.03-28.08,18.02s16.34,16.76,46.51,25.14c33.52,9.64,66.21,24.3,66.21,64.53,0,49.86-36.04,76.26-94.28,76.26-50.28,0-98.05-22.63-100.15-76.26Z"/>
    <path class="cls-5" d="M2063.2,54.79h124.03c58.66,0,98.47,28.91,98.47,80.03,0,44-23.46,68.3-63.27,80.03v1.26c23.05,8.38,35.62,26.4,35.62,56.57,0,15.08-2.09,38.55-2.09,57.82,0,10.48,2.09,17.6,5.87,20.11v3.77h-72.49c-2.93-3.77-3.77-12.15-3.77-20.95,0-15.09,1.68-35.2,1.68-51.96,0-25.56-11.73-39.81-41.06-39.81h-46.09l-21.37,112.72h-73.33l57.83-299.6Zm47.77,132.83h54.05c25.56,0,47.35-12.15,47.35-41.48,0-20.95-12.15-33.1-36.45-33.1h-50.7l-14.25,74.59Z"/>
    <path class="cls-5" d="M2509.04,297.83c0-52.38,38.97-67.46,91.35-71.23,42.32-2.93,59.5-5.45,59.5-26.4,0-12.15-8.8-20.53-26.82-20.53-20.53,0-33.52,9.22-38.13,28.07h-62.43c7.96-44.42,41.48-73.75,103.92-73.75,24.72,0,48.19,4.19,64.95,17.18,17.6,12.99,27.24,35.62,20.53,70.82l-19.27,98.89c-3.35,16.34-2.51,25.98,1.26,30.59v2.93h-64.53c-2.51-5.03-3.35-14.25-3.35-23.46h-.84c-14.25,16.76-33.52,28.91-58.66,28.91-37.29,0-67.46-21.79-67.46-62.02Zm137.44-18.02l5.03-26.4c-9.64,4.61-20.53,7.12-36.46,9.64-17.18,2.93-41.06,4.19-41.06,28.91,0,16.76,11.31,24.3,27.66,24.3,23.05,0,39.81-12.99,44.83-36.46Z"/>
    <path class="cls-5" d="M2760.88,139.86h64.53l-7.12,35.2h1.26c15.5-25.14,35.2-38.55,62.01-38.55,7.12,0,12.57,.84,15.08,1.68l-11.73,60.34h-1.26c-43.16-6.29-69.14,10.48-79.2,62.02l-18.02,93.86h-67.04l41.48-214.54Z"/>
    <path class="cls-5" d="M1478.47,140.02h64.95l-6.7,33.94h1.26c17.18-24.72,38.55-40.23,69.14-40.23,43.16,0,68.3,33.52,57.83,88.83l-25.56,131.99h-67.04l24.72-126.96c4.61-23.47-2.93-38.55-25.14-38.55s-39.81,20.95-45.25,47.77l-22.63,117.75h-67.04l41.48-214.54Z"/>
  </g>
  <g>
    <ellipse class="cls-2" cx="2386.7" cy="247.5" rx="140.19" ry="122.27"/>
    <path class="cls-3" d="M2386.7,136.23c71.35,0,129.19,49.82,129.19,111.27s-57.84,111.27-129.19,111.27-129.19-49.82-129.19-111.27,57.84-111.27,129.19-111.27m0-22c-39.77,0-77.32,13.47-105.71,37.92-14.13,12.17-25.25,26.41-33.08,42.34-8.23,16.76-12.4,34.6-12.4,53.01s4.17,36.25,12.4,53.01c7.82,15.93,18.95,30.17,33.08,42.34,28.39,24.45,65.93,37.92,105.71,37.92s77.32-13.47,105.71-37.92c14.13-12.17,25.25-26.41,33.08-42.34,8.23-16.76,12.4-34.6,12.4-53.01s-4.17-36.25-12.4-53.01c-7.82-15.93-18.95-30.17-33.08-42.34-28.39-24.45-65.93-37.92-105.71-37.92h0Z"/>
  </g>
  <path d="M2288.2,231.66c-5.6-47.95,38.7-60.28,38.7-60.28l31.09,82.18-69.79-21.91Z"/>
  <path d="M2410.23,261.59l36.17-82.18c52.45,16.72,36.62,58.31,36.62,58.31l-72.79,23.87Z"/>
  <polygon points="2381.73 282.16 2362.45 304.17 2397.28 305.53 2381.73 282.16"/>
  <path class="cls-6" d="M2364.62,150.49c28.79,13.34,51.87,5.2,51.87,5.2-20.32-36.79-1.75-67.39-1.75-67.39-12.51-1.3-20.32-8.89-20.32-8.89-5.08,34.29-29.79,71.08-29.79,71.08Z"/>
  <g>
    <path class="cls-4" d="M1395.97,345.25c-48.01,24.49-149.11,22.58-181.23-36.87-6.87-12.72-2.99-38.65,10.11-68.99,52.95,34.14,132.63,43.26,189.08,33.89,3.02,34.74-1.59,63.62-17.96,71.96Z"/>
    <path class="cls-2" d="M1413.93,273.29c-56.45,9.37-136.13,.25-189.08-33.89,1.47-3.42,3.05-6.9,4.71-10.39,10.48-22.03,24.44-45.1,39.53-64.88,38.32,25.32,83.8,35.23,127.25,28.2,7.88,23.16,13.82,48.47,16.64,71.82,.38,3.09,.69,6.14,.95,9.14Z"/>
    <path class="cls-1" d="M1396.34,192.33c-43.45,7.03-88.93-2.88-127.25-28.2,2.69-3.53,5.41-6.95,8.16-10.23,22.07-26.46,45.61-44.61,63.75-41.82,18.14,2.8,36.73,31.24,50.72,67.46,1.6,4.17,3.15,8.44,4.62,12.78Z"/>
  </g>
</svg>