<?xml version="1.0" encoding="UTF-8"?>
<svg id="Halloween" xmlns="http://www.w3.org/2000/svg" viewBox="0 0 3000 400">
  <defs>
    <style>
      .cls-1 {
        fill: #f4e399;
      }

      .cls-2 {
        fill: #f77100;
      }

      .cls-3 {
        fill: #fff;
      }

      .cls-4 {
        fill: #ffd33f;
      }

      .cls-5 {
        fill: #231f20;
      }

      .cls-6 {
        fill: #580;
      }
    </style>
  </defs>
  <g>
    <path class="cls-5" d="M137.37,54.79l-11.73,62.02h84.22l-46.09,237.58h72.91l46.09-237.58h85.07l11.73-62.02H137.37Z"/>
    <path class="cls-5" d="M514.07,133.57c-30.59,0-49.86,13.83-66.2,35.62h-1.26l22.21-114.4h-67.05l-57.82,299.6h67.04l22.63-117.74c5.45-26.82,21.79-47.77,45.25-47.77,22.21,0,29.75,15.08,25.15,38.55l-24.73,126.96h67.05l25.56-131.99c10.47-55.31-14.67-88.83-57.83-88.83Z"/>
    <path class="cls-5" d="M763.39,147.82c-15.08-9.22-32.68-14.25-57.4-14.25-70.82,0-118.59,60.76-118.59,128.22s44,98.89,102.25,98.89,92.6-28.91,106.01-70.4h-66.21c-6.7,15.09-20.53,21.79-36.87,21.79-30.59,0-38.55-20.53-38.97-47.35h147.08c7.96-53.21-3.36-95.53-37.3-116.9Zm-23.88,76.26h-80.45c7.54-26.4,24.72-42.32,46.09-42.32,25.56,0,35.2,19.27,34.36,42.32Z"/>
    <path class="cls-5" d="M958.66,291.96l46.09-237.17h-73.33l-57.82,299.6h202.39l11.73-62.43h-129.06Z"/>
    <path class="cls-5" d="M1158.11,54.79l-10.47,55.31h67.04l10.48-55.31h-67.05Zm-16.34,85.06l-41.48,214.54h67.04l41.48-214.54h-67.04Z"/>
    <path class="cls-5" d="M1709.55,54.79l-11.74,62.44h27.66c-3.35,21.79-18.02,34.78-36.04,37.71l-5.02,24.3c19.69-.84,37.71-7.12,50.7-18.43,12.57-10.9,20.53-26.4,24.72-48.61l11.31-57.41h-61.59Z"/>
    <path class="cls-5" d="M1859.55,220.31c-30.17-8.38-46.51-12.58-46.51-25.15s14.25-18.01,28.08-18.01c19.27,0,30.58,10.05,32.26,25.14h61.6c-2.94-48.61-44-68.72-91.35-68.72-53.22,0-92.6,25.14-92.6,71.65,0,38.13,27.65,52.8,63.69,63.27,28.49,8.38,47.77,12.16,47.77,27.24s-12.16,20.53-29.75,20.53c-26.4,0-36.46-13.83-37.72-31.43h-63.69c2.1,53.64,49.87,76.27,100.15,76.27,58.24,0,94.28-26.4,94.28-76.27,0-40.22-32.68-54.89-66.21-64.52Z"/>
    <path class="cls-5" d="M2187.23,54.79h-124.03l-57.83,299.6h73.33l21.37-112.71h46.1c29.33,0,41.06,14.24,41.06,39.8,0,16.76-1.68,36.88-1.68,51.96,0,8.8,.84,17.18,3.78,20.95h72.49v-3.77c-3.78-2.51-5.87-9.64-5.87-20.11,0-4.94,.14-10.17,.34-15.45-3.12-4.68-5.91-9.54-8.38-14.56-8.23-16.76-12.4-34.59-12.4-53.01,0-7.85,.76-15.59,2.26-23.19-4.43-3.36-9.55-6.08-15.34-8.18v-1.26c7.26-2.14,13.98-4.7,20.11-7.72,1.54-4.28,3.33-8.51,5.37-12.66,7.82-15.92,18.95-30.17,33.08-42.34,1.26-1.08,2.53-2.14,3.82-3.16,.59-4.47,.89-9.19,.89-14.16,0-51.12-39.81-80.03-98.47-80.03Zm-22.21,132.83h-54.05l14.24-74.58h50.71c24.3,0,36.45,12.15,36.45,33.1,0,29.33-21.79,41.48-47.35,41.48Z"/>
    <path class="cls-5" d="M2721.9,221.98c6.7-35.2-2.93-57.82-20.53-70.81-16.76-12.99-40.23-17.18-64.95-17.18-62.44,0-95.96,29.33-103.92,73.74h62.44c4.6-18.85,17.59-28.07,38.13-28.07,18.01,0,26.81,8.38,26.81,20.53,0,20.95-17.18,23.47-59.5,26.4-24.77,1.79-46.55,6.1-62.61,15.7,.07,1.72,.11,3.46,.11,5.2,0,18.42-4.17,36.25-12.4,53.01-3.52,7.17-7.72,14.01-12.56,20.46,9.28,25.38,34.22,38.88,63.58,38.88,25.14,0,44.41-12.15,58.66-28.91h.84c0,9.22,.84,18.43,3.35,23.46h64.53v-2.93c-3.77-4.61-4.61-14.25-1.26-30.59l19.28-98.89Zm-75.43,57.83c-5.02,23.46-21.78,36.45-44.83,36.45-16.34,0-27.66-7.54-27.66-24.3,0-24.72,23.89-25.98,41.07-28.91,15.92-2.52,26.82-5.03,36.45-9.64l-5.03,26.4Z"/>
    <path class="cls-5" d="M2881.55,136.5c-26.82,0-46.51,13.41-62.02,38.55h-1.25l7.12-35.2h-64.53l-41.48,214.54h67.04l18.02-93.86c10.06-51.54,36.04-68.3,79.19-62.01h1.26l11.73-60.34c-2.51-.84-7.96-1.68-15.08-1.68Z"/>
    <path class="cls-5" d="M1607.1,133.73c-30.59,0-51.96,15.5-69.14,40.23h-1.25l6.7-33.95h-64.95l-41.48,214.54h67.04l22.63-117.74c5.45-26.82,22.21-47.77,45.25-47.77s29.75,15.08,25.15,38.55l-24.73,126.96h67.05l25.56-131.99c10.47-55.31-14.67-88.83-57.83-88.83Z"/>
  </g>
  <g>
    <ellipse class="cls-2" cx="2386.7" cy="247.5" rx="140.19" ry="122.27"/>
    <path class="cls-3" d="M2386.7,136.23c71.35,0,129.19,49.82,129.19,111.27s-57.84,111.27-129.19,111.27-129.19-49.82-129.19-111.27,57.84-111.27,129.19-111.27m0-22c-39.77,0-77.32,13.47-105.71,37.92-14.13,12.17-25.25,26.41-33.08,42.34-8.23,16.76-12.4,34.6-12.4,53.01s4.17,36.25,12.4,53.01c7.82,15.93,18.95,30.17,33.08,42.34,28.39,24.45,65.93,37.92,105.71,37.92s77.32-13.47,105.71-37.92c14.13-12.17,25.25-26.41,33.08-42.34,8.23-16.76,12.4-34.6,12.4-53.01s-4.17-36.25-12.4-53.01c-7.82-15.93-18.95-30.17-33.08-42.34-28.39-24.45-65.93-37.92-105.71-37.92h0Z"/>
  </g>
  <path d="M2288.2,231.66c-5.6-47.95,38.7-60.28,38.7-60.28l31.09,82.18-69.79-21.91Z"/>
  <path d="M2410.23,261.59l36.17-82.18c52.45,16.72,36.62,58.31,36.62,58.31l-72.79,23.87Z"/>
  <polygon points="2381.73 282.16 2362.45 304.17 2397.28 305.53 2381.73 282.16"/>
  <path class="cls-6" d="M2364.62,150.49c28.79,13.34,51.87,5.2,51.87,5.2-20.32-36.79-1.75-67.39-1.75-67.39-12.51-1.3-20.32-8.89-20.32-8.89-5.08,34.29-29.79,71.08-29.79,71.08Z"/>
  <g>
    <path class="cls-4" d="M1395.97,345.25c-48.01,24.49-149.11,22.58-181.23-36.87-6.87-12.72-2.99-38.65,10.11-68.99,52.95,34.14,132.63,43.26,189.08,33.89,3.02,34.74-1.59,63.62-17.96,71.96Z"/>
    <path class="cls-2" d="M1413.93,273.29c-56.45,9.37-136.13,.25-189.08-33.89,1.47-3.42,3.05-6.9,4.71-10.39,10.48-22.03,24.44-45.1,39.53-64.88,38.32,25.32,83.8,35.23,127.25,28.2,7.88,23.16,13.82,48.47,16.64,71.82,.38,3.09,.69,6.14,.95,9.14Z"/>
    <path class="cls-1" d="M1396.34,192.33c-43.45,7.03-88.93-2.88-127.25-28.2,2.69-3.53,5.41-6.95,8.16-10.23,22.07-26.46,45.61-44.61,63.75-41.82,18.14,2.8,36.73,31.24,50.72,67.46,1.6,4.17,3.15,8.44,4.62,12.78Z"/>
  </g>
</svg>