<?xml version="1.0" encoding="UTF-8"?>
<svg id="Christmas" xmlns="http://www.w3.org/2000/svg" viewBox="0 0 3000 400">
  <defs>
    <style>
      .cls-1 {
        fill: #00b46f;
      }

      .cls-2 {
        fill: #fff;
      }

      .cls-3 {
        fill: #dc253d;
      }
    </style>
  </defs>
  <g>
    <path class="cls-3" d="M141.95,54.95l-11.73,62.02h84.22l-46.09,237.58h72.91l46.09-237.58h85.06l11.73-62.02H141.95Z"/>
    <path class="cls-3" d="M518.65,133.73c-30.59,0-49.87,13.83-66.21,35.61h-1.26l22.21-114.39h-67.04l-57.83,299.6h67.05l22.62-117.74c5.45-26.82,21.79-47.77,45.26-47.77,22.21,0,29.75,15.08,25.14,38.55l-24.72,126.96h67.04l25.56-131.99c10.48-55.31-14.66-88.83-57.82-88.83Z"/>
    <path class="cls-3" d="M767.97,147.97c-15.09-9.21-32.69-14.24-57.41-14.24-70.81,0-118.58,60.76-118.58,128.22s44,98.89,102.24,98.89,92.6-28.91,106.01-70.4h-66.2c-6.71,15.09-20.54,21.79-36.88,21.79-30.59,0-38.55-20.53-38.97-47.35h147.08c7.96-53.21-3.35-95.54-37.29-116.91Zm-23.89,76.27h-80.45c7.54-26.4,24.72-42.32,46.09-42.32,25.56,0,35.2,19.27,34.36,42.32Z"/>
    <path class="cls-1" d="M963.23,292.12l46.1-237.17h-73.33l-57.83,299.6h202.39l11.73-62.43h-129.06Z"/>
    <path class="cls-1" d="M1162.69,54.95l-10.48,55.31h67.04l10.48-55.31h-67.04Zm-16.34,85.06l-41.49,214.54h67.05l41.48-214.54h-67.04Z"/>
    <path class="cls-1" d="M1337.42,134.15c-74.58,0-122.77,58.24-122.77,128.64,0,66.2,49.02,98.47,103.5,98.47,75,0,122.77-58.25,122.77-129.48-.42-65.79-48.61-97.63-103.5-97.63Zm-18.02,179.34c-27.65,0-37.29-22.21-37.29-47.77-.42-34.36,14.67-83.8,53.22-83.8,27.65,0,37.71,23.04,37.71,47.76,.42,35.2-14.67,83.81-53.64,83.81Z"/>
    <path class="cls-1" d="M1611.88,133.73c-30.59,0-51.96,15.5-69.14,40.22h-1.26l6.71-33.94h-64.95l-41.49,214.54h67.05l22.63-117.74c5.44-26.82,22.2-47.77,45.25-47.77s29.75,15.08,25.14,38.55l-24.72,126.96h67.04l25.56-131.99c10.48-55.31-14.66-88.83-57.82-88.83Z"/>
    <path class="cls-1" d="M1714.12,54.95l-11.73,62.44h27.65c-3.35,21.79-18.01,34.77-36.03,37.71l-5.03,24.3c19.69-.84,37.71-7.12,50.7-18.44,12.57-10.89,20.53-26.39,24.72-48.6l11.32-57.41h-61.6Z"/>
    <path class="cls-1" d="M1864.13,220.47c-30.17-8.39-46.51-12.58-46.51-25.15s14.24-18.01,28.07-18.01c19.28,0,30.59,10.05,32.27,25.14h61.59c-2.93-48.61-44-68.72-91.34-68.72-53.22,0-92.61,25.14-92.61,71.65,0,38.13,27.66,52.8,63.69,63.27,28.5,8.38,47.77,12.15,47.77,27.24s-12.15,20.53-29.75,20.53c-26.4,0-36.45-13.83-37.71-31.43h-63.69c2.09,53.64,49.86,76.27,100.14,76.27,58.25,0,94.28-26.4,94.28-76.27,0-40.22-32.68-54.89-66.2-64.52Z"/>
    <path class="cls-3" d="M2290.27,134.99c0-51.13-39.8-80.04-98.47-80.04h-124.03l-57.82,299.6h73.33l21.37-112.71h46.09c29.33,0,41.06,14.24,41.06,39.8,0,16.76-1.67,36.88-1.67,51.96,0,8.8,.84,17.18,3.77,20.95h62.19c1.55-14.1-3.19-21.63-4.21-23.07-5-5.03-6.19-12.15-3.61-18.79,2.2-5.64,7.34-9.43,13.2-10.63,.56-10.84,1.15-21.21,1.15-29.22,0-30.17-12.57-48.18-35.62-56.56v-1.26c39.81-11.73,63.27-36.04,63.27-80.03Zm-120.67,52.79h-54.06l14.25-74.58h50.7c24.3,0,36.46,12.15,36.46,33.1,0,29.33-21.79,41.48-47.35,41.48Z"/>
    <path class="cls-3" d="M2726.47,222.14c6.71-35.2-2.93-57.82-20.53-70.81-16.76-12.99-40.23-17.18-64.95-17.18-62.43,0-95.95,29.33-103.91,73.74h62.43c4.61-18.85,17.6-28.07,38.13-28.07,18.02,0,26.82,8.38,26.82,20.53,0,20.95-17.18,23.47-59.5,26.4-35.96,2.59-65.59,10.51-80.64,32.16,4.3-.03,9.24-1.02,14.67-2.93,1.95-.68,3.97-1.02,5.97-1.02,4.23,0,8.4,1.49,11.71,4.33,4.88,4.18,7.17,10.64,5.99,16.96-2.91,15.67,4.69,31.62,11.58,42.24,8.35,12.89,17.86,21.52,17.92,21.57,5.22,4.6,7.18,11.63,5.48,18.06,17.25-4.01,31.16-14.16,42.1-27.03h.83c0,9.22,.84,18.43,3.36,23.46h64.53v-2.93c-3.78-4.61-4.61-14.25-1.26-30.59l19.27-98.89Zm-75.42,57.83c-5.03,23.46-21.79,36.45-44.84,36.45-16.34,0-27.65-7.54-27.65-24.3,0-24.72,23.88-25.98,41.06-28.91,15.92-2.52,26.82-5.03,36.46-9.64l-5.03,26.4Z"/>
    <path class="cls-3" d="M2886.12,136.66c-26.81,0-46.51,13.41-62.01,38.55h-1.26l7.12-35.2h-64.52l-41.49,214.54h67.05l18.01-93.86c10.06-51.54,36.04-68.3,79.2-62.01h1.26l11.73-60.34c-2.52-.84-7.96-1.68-15.09-1.68Z"/>
  </g>
  <g>
    <g>
      <path class="cls-1" d="M2261.98,401.49c-1.95,0-3.9-.63-5.53-1.9-3.46-2.7-4.48-7.48-2.41-11.34,9.27-17.29,12.98-33.66,10.71-47.34-1.6-9.63-5.54-14.7-6.03-15.3-2.41-2.57-3.02-6.21-1.68-9.48,1.34-3.28,4.58-5.38,8.13-5.49,8.12-.26,14.21-2.97,18.62-8.28,10.53-12.68,9.48-37.41,8.19-45.88-.4-2.63,.38-5.3,2.14-7.3,1.71-1.95,4.17-3.06,6.76-3.06,.07,0,.14,0,.21,0,.34,0,.68,.01,1.02,.01,20.41,0,35.62-14.16,44.52-25.46-10.24-10.99-23.12-15.67-23.27-15.72-3.32-1.14-5.67-4.11-6.02-7.6-.35-3.49,1.35-6.87,4.38-8.66,16.48-9.74,25.48-21.46,24.7-32.16-.7-9.53-9.47-18.41-24.06-24.37-2.97-1.21-5.08-3.92-5.51-7.11-.44-3.18,.86-6.36,3.39-8.33,29.41-22.87,23.79-74.94,23.73-75.46-.51-4.4,2.27-8.52,6.54-9.71,.8-.22,1.61-.33,2.41-.33,3.46,0,6.7,2,8.19,5.28,20.38,44.87,51.54,54.85,52.85,55.25,2.8,.82,5,2.93,5.96,5.69,.95,2.76,.49,5.79-1.21,8.17-4.72,6.61-6.27,13.1-4.73,19.82,3.68,16.07,23.97,30.25,31.48,34.36,2.33,1.28,3.98,3.52,4.51,6.13s-.14,5.32-1.8,7.39c-6.36,7.94-9.74,17.82-10.07,29.43,8.76,7.92,19.66,11.94,32.44,11.94,12.5,0,22.27-3.93,22.37-3.97,1.12-.46,2.29-.69,3.46-.69,2.22,0,4.4,.82,6.09,2.38,2.58,2.38,3.55,6.04,2.48,9.38-5.23,16.29-4.9,30.19,.9,38.14,3.86,5.29,10.02,7.98,18.33,7.98,5.37,0,11.37-1.16,17.84-3.43,.98-.34,1.99-.51,2.99-.51,2.12,0,4.2,.75,5.85,2.16,2.44,2.09,3.58,5.32,3,8.48-6.8,36.63,31.98,71.83,32.37,72.18,3.3,2.96,3.97,7.88,1.56,11.6-1.71,2.64-4.59,4.12-7.56,4.12-1.23,0-2.47-.25-3.65-.78-16.37-7.27-32.59-10.96-48.24-10.96-17.39,0-27.87,4.71-27.97,4.75-1.21,.58-2.52,.86-3.82,.86-1.52,0-3.04-.39-4.41-1.16-2.54-1.43-4.21-4.01-4.52-6.91-2.63-24.67-28.35-24.67-36.81-24.67-10.52,0-19.1,1.92-19.19,1.93-.66,.15-1.33,.22-1.99,.22-1.95,0-3.86-.63-5.44-1.83-2.12-1.6-3.42-4.06-3.56-6.71-.7-13.84-7.96-24.87-15.83-32.87-9.89,19.64-2.86,41.45-2.78,41.7,1.11,3.33,.18,7-2.38,9.4-1.7,1.59-3.91,2.44-6.16,2.44-1.14,0-2.28-.21-3.38-.66-8.85-3.58-16.92-5.4-23.99-5.4-5.89,0-13.95,1.35-18.87,7.79-5.22,6.82-6.09,17.98-2.45,31.43,.84,3.1-.04,6.42-2.3,8.7-1.71,1.72-4.02,2.66-6.39,2.66-.76,0-1.53-.1-2.29-.3-5.29-1.39-10.74-2.1-16.18-2.1-28.22,0-49.34,18.92-49.55,19.11-1.71,1.56-3.89,2.35-6.07,2.35Z"/>
      <path class="cls-2" d="M2352.89,40.24c22.55,49.67,58.47,60.15,58.47,60.15-26.21,36.69,29.76,67.31,29.76,67.31-9.69,12.09-12.36,26.21-12.05,38.85,13,13.54,28.57,17.14,41.45,17.14,14.65,0,25.83-4.66,25.83-4.66-11.46,35.67,1.69,57.87,27.79,57.87,6.25,0,13.25-1.27,20.83-3.94-7.84,42.21,35.23,80.54,35.23,80.54-20.39-9.06-38.09-11.74-51.89-11.74-19.95,0-31.77,5.59-31.77,5.59-2.92-27.39-27.26-32.72-45.76-32.72-11.78,0-21.19,2.16-21.19,2.16-1.08-21.21-14.55-36.52-26.63-46.09-20.46,25.23-9.5,58.21-9.5,58.21-10.21-4.13-19.41-6.06-27.36-6.06-25.6,0-38.3,19.95-30.01,50.57-6.4-1.69-12.58-2.4-18.47-2.4-32.31,0-55.63,21.47-55.63,21.47,25.78-48.07,3.48-72.87,3.48-72.87,45.06-1.45,35.42-64.51,35.42-64.51,.41,0,.82,.01,1.23,.01,28.49,0,47.83-22.97,55.89-34.77-12.45-17.28-31.72-23.92-31.72-23.92,39.98-23.63,37.95-56.89-.54-72.61,33.89-26.35,27.15-83.61,27.15-83.61m-.03-18.05c-1.61,0-3.24,.22-4.85,.67-8.55,2.41-14.07,10.64-12.99,19.45,.06,.58,1.35,13.15-.92,28.05-1.91,12.52-6.82,29.49-19.4,39.27-5.07,3.94-7.66,10.29-6.78,16.66,.88,6.37,5.08,11.78,11.03,14.21,10.98,4.48,18.07,10.88,18.49,16.69,.4,5.45-4.73,14.55-20.3,23.76-6.08,3.6-9.63,10.38-8.86,17.4,.76,7,5.41,12.87,12.09,15.09,.66,.25,7.02,2.72,13.69,7.9-7.6,7.8-18.63,15.79-31.94,15.79-.27,0-.54,0-.81,0-.14,0-.28,0-.43,0-5.19,0-10.13,2.19-13.55,6.1-3.51,4.02-5.06,9.33-4.23,14.59,1.01,6.97,2.03,28.93-6.24,38.82-1.85,2.21-4.87,4.77-11.96,5-7.21,.23-13.99,4.32-16.6,11.05-2.58,6.64-1.39,13.76,3.6,18.79,1.59,2.24,12.12,19.15-5.77,52.52-4.17,7.78-2.17,17.51,4.84,22.87,3.27,2.5,7.13,3.74,10.98,3.74,4.4,0,8.77-1.62,12.19-4.83,.96-.84,19.46-16.75,43.48-16.75,4.67,0,9.34,.61,13.89,1.8,1.52,.4,3.06,.59,4.58,.59,4.73,0,9.35-1.87,12.77-5.32,4.53-4.56,6.28-11.19,4.6-17.39-2.81-10.37-2.47-19.19,.91-23.61,2.16-2.82,6.11-4.26,11.73-4.26s12.94,1.64,20.61,4.74c2.23,.9,4.58,1.35,6.91,1.35,4.5,0,8.92-1.66,12.3-4.87,5.1-4.86,6.94-12.12,4.65-18.77-.23-.75-2.46-8.5-1.94-18.09,1.78,4.05,2.78,8.21,2.99,12.49,.27,5.33,2.84,10.29,7.11,13.49,3.15,2.37,6.93,3.62,10.78,3.62,1.36,0,2.73-.16,4.08-.47,.5-.11,8.05-1.71,17.19-1.71,8.46,0,15.43,1.35,20.14,3.91,3.34,1.81,6.87,4.74,7.72,12.72,.63,5.88,3.89,11.19,9.09,14.01,2.73,1.48,5.69,2.24,8.65,2.24,2.64,0,5.28-.6,7.76-1.84,1.05-.43,9.93-3.92,24.18-3.92s29.38,3.43,44.58,10.19c2.37,1.05,4.87,1.56,7.34,1.56,5.98,0,11.77-2.96,15.16-8.26,4.8-7.48,3.45-17.32-3.22-23.19-.06-.05-9.57-8.68-17.92-21.56-6.89-10.62-14.48-26.58-11.57-42.25,1.17-6.32-1.11-12.78-5.99-16.96-3.31-2.83-7.48-4.33-11.71-4.33-2.01,0-4.03,.34-5.98,1.02-5.51,1.94-10.5,2.92-14.85,2.92-5.27,0-8.98-1.44-11.05-4.28-4.03-5.52-3.88-16.77,.4-30.09,2.16-6.73,.31-14.15-4.93-18.9-3.39-3.07-7.69-4.7-12.06-4.7-2.36,0-4.74,.47-7,1.45-.76,.29-8.85,3.3-18.97,3.3-9.04,0-16.68-2.29-23.15-6.97,.86-7.75,3.48-14.38,7.8-19.77,3.34-4.17,4.7-9.58,3.64-14.81-1.06-5.23-4.34-9.69-9.03-12.23-6.15-3.43-24.22-15.95-27.06-28.53-.63-2.81-.83-6.77,3.29-12.54,3.44-4.81,4.52-10.95,2.51-16.51-2-5.53-6.33-9.67-12-11.2-.94-.33-7.82-2.85-16.56-9.69-12.58-9.84-22.91-23.52-30.69-40.66-2.98-6.57-9.5-10.61-16.42-10.61h0Z"/>
    </g>
    <g>
      <path class="cls-3" d="M2424.05,258.13c-13.45,0-25.06-9.14-28.23-22.22-1.83-7.55-.61-15.35,3.43-21.99,4.04-6.63,10.42-11.29,17.97-13.12,2.26-.55,4.57-.83,6.88-.83,13.45,0,25.06,9.14,28.23,22.22,3.78,15.58-5.82,31.33-21.4,35.11-2.26,.55-4.57,.83-6.88,.83Z"/>
      <path class="cls-2" d="M2424.1,203.48c11.53,0,21.99,7.85,24.83,19.55,3.33,13.73-5.1,27.55-18.82,30.88-2.03,.49-4.05,.73-6.05,.73-11.53,0-21.99-7.85-24.83-19.55-3.33-13.73,5.1-27.55,18.82-30.88,2.03-.49,4.05-.73,6.05-.73m0-7h0c-2.58,0-5.17,.31-7.7,.92-17.45,4.23-28.21,21.88-23.98,39.33,3.56,14.66,16.57,24.9,31.63,24.9,2.58,0,5.17-.31,7.7-.92,8.46-2.05,15.61-7.27,20.13-14.7,4.53-7.43,5.89-16.18,3.84-24.63-3.56-14.66-16.56-24.9-31.63-24.9h0Z"/>
    </g>
    <g>
      <path class="cls-3" d="M2375.65,235.62c-15.01,0-27.96-10.2-31.51-24.8-2.04-8.42-.68-17.14,3.83-24.54,4.51-7.4,11.63-12.6,20.05-14.64,2.52-.61,5.1-.92,7.67-.92,15.01,0,27.96,10.2,31.51,24.8,2.04,8.42,.68,17.14-3.83,24.54-4.51,7.4-11.63,12.6-20.05,14.64-2.52,.61-5.1,.92-7.67,.92Z"/>
      <path class="cls-2" d="M2375.69,174.21c13.05,0,24.89,8.89,28.11,22.13,3.77,15.54-5.77,31.18-21.31,34.95-2.29,.56-4.59,.82-6.85,.82-13.05,0-24.89-8.89-28.11-22.13-3.77-15.54,5.77-31.18,21.31-34.95,2.29-.56,4.59-.82,6.85-.82m0-7h0c-2.85,0-5.71,.34-8.5,1.02-9.33,2.26-17.22,8.03-22.22,16.22-5,8.2-6.5,17.85-4.24,27.18,3.92,16.18,18.28,27.48,34.91,27.48,2.85,0,5.71-.34,8.5-1.02,9.33-2.26,17.22-8.03,22.22-16.22,5-8.2,6.5-17.85,4.24-27.18-3.92-16.18-18.28-27.48-34.91-27.48h0Z"/>
    </g>
    <g>
      <path class="cls-3" d="M2375.95,285.41c-14.72,0-27.43-10-30.9-24.33-4.14-17.05,6.37-34.29,23.42-38.43,2.47-.6,5-.9,7.53-.9,14.72,0,27.43,10,30.9,24.33,2,8.26,.67,16.81-3.75,24.07-4.42,7.26-11.41,12.36-19.67,14.36-2.47,.6-5,.9-7.53,.9Z"/>
      <path class="cls-2" d="M2376,225.25c12.77,0,24.36,8.69,27.5,21.65,3.69,15.2-5.65,30.51-20.85,34.2-2.24,.54-4.49,.8-6.7,.8-12.77,0-24.36-8.69-27.5-21.65-3.69-15.2,5.65-30.51,20.85-34.2,2.24-.54,4.49-.8,6.7-.8m0-7h0c-2.8,0-5.61,.34-8.35,1-9.17,2.22-16.92,7.89-21.83,15.94-4.91,8.06-6.39,17.54-4.17,26.71,3.86,15.9,17.96,27,34.3,27,2.8,0,5.61-.34,8.35-1,18.93-4.59,30.59-23.73,26-42.66-3.86-15.9-17.96-27-34.3-27h0Z"/>
    </g>
  </g>
</svg>