<?xml version="1.0" encoding="UTF-8"?>
<svg id="Chinese_new_Year" data-name="Chinese new Year" xmlns="http://www.w3.org/2000/svg" xmlns:xlink="http://www.w3.org/1999/xlink" viewBox="0 0 3000 400">
  <defs>
    <style>
      .cls-1 {
        fill: #f98c4d;
      }

      .cls-2 {
        fill: #231f20;
      }

      .cls-3 {
        font-family: WeibeiTC-Bold-B5pc-H, 'Weibei TC';
        font-size: 208.33px;
      }

      .cls-4 {
        fill: url(#radial-gradient);
      }
    </style>
    <radialGradient id="radial-gradient" cx="2394.81" cy="213.39" fx="2394.81" fy="213.39" r="138.49" gradientUnits="userSpaceOnUse">
      <stop offset="0" stop-color="#f9ed78"/>
      <stop offset=".86" stop-color="#dc253d"/>
      <stop offset="1" stop-color="#dc253d"/>
    </radialGradient>
  </defs>
  <g>
    <path class="cls-2" d="M141.95,54.96l-11.73,62.01h84.22l-46.09,237.59h72.91l46.09-237.59h85.06l11.73-62.01H141.95Z"/>
    <path class="cls-2" d="M518.65,133.73c-30.59,0-49.87,13.83-66.21,35.62h-1.26l22.21-114.39h-67.04l-57.83,299.6h67.05l22.63-117.75c5.44-26.82,21.78-47.77,45.25-47.77,22.21,0,29.75,15.09,25.14,38.55l-24.72,126.97h67.04l25.56-132c10.48-55.31-14.66-88.83-57.82-88.83Z"/>
    <path class="cls-2" d="M767.97,147.98c-15.09-9.22-32.69-14.25-57.41-14.25-70.81,0-118.58,60.76-118.58,128.22s44,98.89,102.24,98.89,92.6-28.91,106.01-70.39h-66.2c-6.71,15.08-20.54,21.79-36.88,21.79-30.59,0-38.55-20.54-38.97-47.35h147.08c7.96-53.22-3.35-95.54-37.29-116.91Zm-23.89,76.26h-80.45c7.54-26.4,24.72-42.32,46.09-42.32,25.56,0,35.2,19.27,34.36,42.32Z"/>
    <path class="cls-2" d="M963.23,292.12l46.1-237.16h-73.33l-57.83,299.6h202.39l11.73-62.44h-129.06Z"/>
    <path class="cls-2" d="M1162.69,54.96l-10.48,55.31h67.05l10.47-55.31h-67.04Zm-16.34,85.06l-41.49,214.54h67.05l41.48-214.54h-67.04Z"/>
    <path class="cls-2" d="M1337.42,134.15c-74.58,0-122.77,58.25-122.77,128.64,0,66.21,49.02,98.47,103.5,98.47,75,0,122.77-58.24,122.77-129.48-.42-65.78-48.61-97.63-103.5-97.63Zm-18.02,179.34c-27.65,0-37.29-22.21-37.29-47.77-.42-34.36,14.67-83.8,53.22-83.8,27.65,0,37.71,23.05,37.71,47.77,.42,35.2-14.67,83.8-53.64,83.8Z"/>
    <path class="cls-2" d="M1611.88,133.73c-30.59,0-51.96,15.51-69.14,40.23h-1.26l6.71-33.94h-64.95l-41.48,214.54h67.04l22.63-117.75c5.44-26.82,22.2-47.77,45.25-47.77s29.75,15.09,25.14,38.55l-24.72,126.97h67.04l25.56-132c10.48-55.31-14.66-88.83-57.82-88.83Z"/>
    <path class="cls-2" d="M1714.12,54.96l-11.73,62.43h27.65c-3.35,21.79-18.01,34.78-36.03,37.71l-5.03,24.31c19.7-.84,37.71-7.13,50.7-18.44,12.57-10.9,20.53-26.4,24.72-48.61l11.32-57.4h-61.6Z"/>
    <path class="cls-2" d="M1864.13,220.47c-30.17-8.38-46.51-12.57-46.51-25.14s14.24-18.02,28.07-18.02c19.28,0,30.59,10.06,32.27,25.14h61.59c-2.93-48.61-44-68.72-91.35-68.72-53.21,0-92.6,25.14-92.6,71.65,0,38.14,27.66,52.8,63.69,63.28,28.5,8.38,47.77,12.15,47.77,27.23s-12.15,20.53-29.75,20.53c-26.4,0-36.45-13.82-37.71-31.42h-63.69c2.09,53.63,49.86,76.26,100.14,76.26,58.25,0,94.28-26.4,94.28-76.26,0-40.23-32.68-54.89-66.2-64.53Z"/>
    <path class="cls-2" d="M2260.53,330.67v-.34c-14.78-19.87-22.77-43.85-22.77-69.06v-39.9c-3.28-1.99-6.87-3.68-10.76-5.09v-1.26c3.73-1.1,7.32-2.31,10.76-3.63v-45.88c0-30.9,12-59.95,33.79-81.83-17.18-18.69-45.19-28.72-79.75-28.72h-124.02l-57.83,299.6h73.33l21.37-112.72h46.09c29.33,0,41.06,14.25,41.06,39.81,0,16.76-1.67,36.87-1.67,51.95,0,8.81,.84,17.18,3.77,20.96h72.49v-3.78c-3.77-2.51-5.86-9.63-5.86-20.11Zm-90.93-142.88h-54.06l14.25-74.59h50.7c24.3,0,36.46,12.15,36.46,33.1,0,29.33-21.79,41.49-47.35,41.49Z"/>
    <path class="cls-2" d="M2726.47,222.15c6.71-35.2-2.93-57.83-20.53-70.82-16.76-12.99-40.23-17.18-64.95-17.18-43.15,0-72.49,14.01-89.12,37.33v36.42h47.64c4.61-18.86,17.6-28.08,38.13-28.08,18.02,0,26.82,8.38,26.82,20.54,0,20.95-17.18,23.46-59.5,26.39-20.17,1.46-38.36,4.59-53.09,10.88v23.64c0,27.36-9.42,53.28-26.72,74.06,12.12,16.17,32.63,24.67,55.92,24.67,25.14,0,44.42-12.15,58.67-28.91h.83c0,9.22,.84,18.44,3.36,23.47h64.52v-2.94c-3.77-4.61-4.6-14.24-1.25-30.59l19.27-98.88Zm-75.42,57.82c-5.03,23.46-21.79,36.45-44.84,36.45-16.34,0-27.65-7.54-27.65-24.3,0-24.72,23.88-25.98,41.06-28.91,15.92-2.51,26.82-5.03,36.46-9.64l-5.03,26.4Z"/>
    <path class="cls-2" d="M2886.12,136.66c-26.81,0-46.51,13.41-62.01,38.55h-1.26l7.12-35.19h-64.52l-41.49,214.54h67.05l18.01-93.86c10.06-51.54,36.04-68.3,79.2-62.02h1.26l11.73-60.34c-2.51-.84-7.96-1.68-15.09-1.68Z"/>
  </g>
  <rect class="cls-4" x="2259.76" y="71.54" width="270.11" height="283.69" rx="93.96" ry="93.96"/>
  <rect class="cls-1" x="2315.35" y="346.5" width="158.92" height="28.52" rx="14.26" ry="14.26"/>
  <rect class="cls-1" x="2315.35" y="54.81" width="158.92" height="28.52" rx="14.26" ry="14.26"/>
  <text class="cls-3" transform="translate(2497.76 138.09) rotate(-180)"><tspan x="0" y="0">福</tspan></text>
</svg>