<?xml version="1.0" encoding="UTF-8"?>
<svg id="TypeOnly" xmlns="http://www.w3.org/2000/svg" viewBox="0 0 3248.17 400">
  <defs>
    <style>
      .cls-1 {
        fill: #ea1f26;
      }

      .cls-2 {
        fill: #231f20;
      }
    </style>
  </defs>
  <path class="cls-2" d="M220.33,115.76h-84.22l11.73-62.02h242.19l-11.73,62.02h-85.06l-46.09,237.59h-72.91l46.09-237.59Z"/>
  <path class="cls-2" d="M412.23,53.74h67.04l-22.21,114.39h1.26c16.34-21.79,35.62-35.62,66.21-35.62,43.16,0,68.3,33.52,57.83,88.83l-25.56,131.99h-67.04l24.72-126.96c4.61-23.47-2.93-38.55-25.14-38.55-23.46,0-39.81,20.95-45.25,47.77l-22.63,117.75h-67.04L412.23,53.74Z"/>
  <path class="cls-2" d="M664.07,263.67c.42,26.82,8.38,47.35,38.97,47.35,16.34,0,30.17-6.7,36.87-21.79h66.21c-13.41,41.48-50.7,70.4-106.01,70.4-58.24,0-102.24-33.1-102.24-98.89s47.77-128.22,118.58-128.22c24.72,0,42.32,5.03,57.41,14.25,33.94,21.37,45.25,63.69,37.29,116.91h-147.08Zm5.45-40.65h80.45c.84-23.05-8.8-42.32-34.36-42.32-21.37,0-38.55,15.92-46.09,42.32Z"/>
  <path class="cls-2" d="M941.88,53.74h73.33l-46.09,237.17h129.06l-11.73,62.43h-202.39l57.82-299.6Z"/>
  <path class="cls-2" d="M1152.23,138.8h67.04l-41.48,214.54h-67.04l41.48-214.54Zm16.34-85.06h67.04l-10.48,55.31h-67.04l10.48-55.31Z"/>
  <path class="cls-2" d="M1220.53,261.58c0-70.4,48.19-128.64,122.77-128.64,54.89,0,103.08,31.85,103.5,97.63,0,71.23-47.77,129.48-122.77,129.48-54.47,0-103.5-32.26-103.5-98.47Zm158.39-33.1c0-24.72-10.06-47.77-37.71-47.77-38.55,0-53.63,49.44-53.22,83.8,0,25.56,9.64,47.77,37.29,47.77,38.97,0,54.05-48.61,53.63-83.8Z"/>
  <path class="cls-2" d="M1489.12,138.8h64.95l-6.7,33.94h1.26c17.18-24.72,38.55-40.23,69.14-40.23,43.16,0,68.3,33.52,57.83,88.83l-25.56,131.99h-67.04l24.72-126.96c4.61-23.47-2.93-38.55-25.14-38.55s-39.81,20.95-45.25,47.77l-22.63,117.75h-67.04l41.48-214.54Z"/>
  <path class="cls-2" d="M1699.89,153.89c18.02-2.93,32.68-15.92,36.04-37.71h-27.66l11.73-62.43h61.6l-11.31,57.41c-4.19,22.21-12.15,37.71-24.72,48.61-12.99,11.31-31.01,17.6-50.7,18.44l5.03-24.3Z"/>
  <path class="cls-2" d="M1741.79,283.79h63.69c1.26,17.6,11.31,31.43,37.71,31.43,17.6,0,29.75-5.87,29.75-20.53s-19.28-18.86-47.77-27.24c-36.04-10.48-63.69-25.14-63.69-63.27,0-46.51,39.39-71.65,92.6-71.65,47.35,0,88.41,20.11,91.35,68.72h-61.6c-1.68-15.08-12.99-25.14-32.26-25.14-13.83,0-28.08,5.03-28.08,18.02s16.34,16.76,46.51,25.14c33.52,9.64,66.21,24.3,66.21,64.53,0,49.86-36.04,76.26-94.28,76.26-50.28,0-98.05-22.63-100.15-76.26Z"/>
  <path class="cls-1" d="M2015.42,259.06h73.33c-.84,31.01,23.05,43.16,56.15,43.16,24.72,0,48.19-7.96,48.19-32.26,0-17.6-18.02-25.56-59.08-40.23-53.63-18.86-87.58-38.13-87.58-86.74,0-62.02,48.19-94.7,114.81-94.7,58.24,0,118.16,22.63,115.23,92.19h-71.23c.42-23.47-16.76-36.46-46.51-36.46-18.86,0-41.48,7.54-41.9,28.49,0,18.02,16.34,22.21,64.11,38.55,50.7,17.6,86.74,38.97,86.74,88.41,0,67.88-56.99,100.98-124.87,100.98s-129.9-25.98-127.38-101.4Z"/>
  <path class="cls-1" d="M2284.85,264.93c0-70.4,46.93-131.99,121.94-131.99,51.54,0,91.77,24.3,93.86,82.13h-64.53c-1.68-18.86-10.06-32.26-31.01-32.26-37.29,0-53.21,47.35-53.21,83.39,0,23.88,9.64,43.16,36.45,43.16,19.28,0,35.2-11.73,41.9-37.29h64.11c-10.89,55.73-53.22,87.58-107.27,87.99-54.89,0-102.24-28.07-102.24-95.12Z"/>
  <path class="cls-1" d="M2507.77,261.58c0-70.4,48.19-128.64,122.77-128.64,54.89,0,103.08,31.85,103.5,97.63,0,71.23-47.77,129.48-122.77,129.48-54.47,0-103.5-32.26-103.5-98.47Zm158.39-33.1c0-24.72-10.06-47.77-37.71-47.77-38.55,0-53.63,49.44-53.22,83.8,0,25.56,9.64,47.77,37.29,47.77,38.97,0,54.05-48.61,53.63-83.8Z"/>
  <path class="cls-1" d="M2776.36,138.8h64.53l-7.12,35.2h1.26c15.5-25.14,35.2-38.55,62.01-38.55,7.12,0,12.57,.84,15.08,1.68l-11.73,60.34h-1.26c-43.16-6.29-69.14,10.48-79.2,62.02l-18.02,93.86h-67.04l41.48-214.54Z"/>
  <path class="cls-1" d="M2969.11,263.67c.42,26.82,8.38,47.35,38.97,47.35,16.34,0,30.17-6.7,36.87-21.79h66.21c-13.41,41.48-50.7,70.4-106.01,70.4-58.24,0-102.24-33.1-102.24-98.89s47.77-128.22,118.58-128.22c24.72,0,42.32,5.03,57.41,14.25,33.94,21.37,45.25,63.69,37.29,116.91h-147.08Zm5.45-40.65h80.45c.84-23.05-8.8-42.32-34.36-42.32-21.37,0-38.55,15.92-46.09,42.32Z"/>
</svg>